<?xml version="1.0" ?>

<!-- Скачано с сайта svg4.ru / Downloaded from svg4.ru -->
<svg width="800px" height="800px" viewBox="0 0 24 24" version="1.1" xml:space="preserve" xmlns="http://www.w3.org/2000/svg" xmlns:xlink="http://www.w3.org/1999/xlink">

<style type="text/css">
	.st0{opacity:0.2;fill:none;stroke:#000000;stroke-width:5.000000e-02;stroke-miterlimit:10;}
</style>

<g id="Layer_Grid"/>

<g id="Layer_2">

<path d="M18.1,11.6c-0.4-0.4-0.4-0.9-0.2-1.4l1.7-3.3c0.4-0.7,0.2-1.5-0.3-2.1c-0.5-0.5-1.4-0.7-2.1-0.3l-3.3,1.7   c-0.5,0.2-1,0.1-1.4-0.2L9.9,3.3C9.4,2.8,8.5,2.7,7.8,3C7.2,3.4,6.8,4.1,6.9,4.9l0.6,3.7c0.1,0.5-0.2,1-0.6,1.2l-3.3,1.7   c-0.7,0.4-1.1,1.1-0.9,1.9c0.1,0.8,0.7,1.4,1.5,1.5l3.7,0.6c0.5,0.1,0.9,0.5,1,1L9.3,20c0.1,0.8,0.7,1.4,1.5,1.5c0.1,0,0.2,0,0.3,0   c0.7,0,1.3-0.4,1.6-1l1.7-3.3c0.2-0.5,0.7-0.7,1.2-0.6l3.7,0.6c0.8,0.1,1.5-0.3,1.9-0.9c0.4-0.7,0.2-1.5-0.3-2.1L18.1,11.6z    M15.9,14.6c-1.4-0.2-2.7,0.5-3.3,1.7L11.2,19l-0.5-3c-0.2-1.4-1.3-2.4-2.6-2.6l-3-0.5l2.7-1.4c1.2-0.6,1.9-2,1.7-3.3L9,5.2   l2.1,2.1c1,1,2.5,1.2,3.7,0.6l2.7-1.4l-1.4,2.7c-0.6,1.2-0.4,2.7,0.6,3.7l2.1,2.1L15.9,14.6z"/>

<circle cx="11.5" cy="12.5" r="0.5"/>

<circle cx="11.5" cy="14.5" r="0.5"/>

<circle cx="9.5" cy="12.5" r="0.5"/>

<circle cx="11.5" cy="10.5" r="0.5"/>

</g>

</svg>