<svg width="395" height="193" viewBox="0 0 395 193" fill="none" xmlns="http://www.w3.org/2000/svg">
<path d="M6.78458 0.551978C10.8973 0.093389 16.3473 -0.0460076 20.4983 0.0128789C21.7976 0.0301681 21.1626 0.433713 22.0589 0.463553C23.8156 0.522263 25.4395 0.26718 27.1782 0.368219C27.7521 0.403788 27.0641 1.0198 27.6657 1.0438C29.9294 1.13132 32.0948 1.04261 34.3153 0.991668C35.3327 0.968396 36.3671 0.953146 37.4172 0.967385C49.3043 1.14726 60.9766 1.33598 72.8851 1.92253C77.4634 2.16185 82.04 2.4841 86.684 2.97374C91.8527 3.48766 97.9722 4.8612 103.197 5.34867C103.574 5.38322 103.944 5.41427 104.307 5.44144C104.965 5.49021 104.634 4.93226 104.764 4.90454C106.769 4.4837 106.01 5.44357 107.275 5.73234C112.236 6.86947 117.872 7.61803 122.741 8.07526C124.838 8.27299 122.889 6.9728 124.895 7.82853C125.036 7.88732 124.429 8.35639 124.996 8.49381C126.238 8.79711 128.732 9.05517 129.702 9.24369C131.605 9.61384 131.932 9.65801 133.741 9.94726C136.239 10.3528 139.128 11.1164 141.806 11.4791C142.377 11.5547 141.731 10.8656 142.646 10.9359C143.57 11.0073 145.937 11.4997 146.704 11.7763C147.476 12.054 147.056 12.425 147.179 12.5506C147.701 13.0995 148.748 13.1803 149.678 13.1285C150.589 13.091 151.389 12.9739 151.572 12.9973C158.399 13.9923 163.734 16.429 169.556 19.4547C171.098 20.2838 172.682 21.2139 174.211 22.3852C178.033 25.5661 178.33 29.8834 178.354 33.0589C178.341 33.8332 178.289 34.582 178.208 35.3101C176.316 42.7219 171.39 43.6494 167.549 46.1995C167.048 46.4716 167.948 46.7424 167.337 47.0729C162.013 49.9021 156.642 51.9668 151.274 53.8994C150.035 54.3427 148.788 54.7646 147.535 55.1664C146.86 55.3817 147.498 54.5101 146.811 54.6925C142.599 55.8369 135.822 57.0713 134.212 60.2873C132.518 60.8113 130.603 61.3945 128.759 61.8348C127.745 62.0621 126.612 62.3794 125.63 62.5768C123.993 62.9295 125.211 61.7028 123.461 62.7776C123.07 63.0204 123.841 63.2776 123.234 63.607C120.695 64.9887 117.745 66.2327 115.294 67.7757C114.794 68.0919 115.159 68.4638 115.05 68.6185C114.129 69.8864 111.509 69.8772 111.013 70.0332C107.272 71.2156 104.862 72.7541 101.65 74.4111C100.904 74.7962 102.092 74.9269 101.385 75.3188C97.7152 77.3427 93.8395 79.3183 90.0676 80.9664C89.2222 81.3346 89.7068 80.4394 89.2898 80.5894C87.4669 81.2499 87.5868 82.3967 85.8342 83.0535C85.4677 83.1918 85.4368 82.6601 85.3492 82.6457C83.9811 82.4173 83.6635 83.9206 83.4296 84.0721C82.3628 84.7683 81.3531 85.2167 80.3751 85.5716C78.5433 86.2363 76.7566 86.6448 74.8233 87.8427C74.4702 88.0635 75.5867 88.1473 74.5781 88.7346C68.5738 92.2441 62.1788 95.8642 55.9199 99.0729C55.1585 99.4646 54.3993 99.8342 53.645 100.189C52.5365 100.708 53.0817 99.8846 52.9869 99.8717C51.4699 99.6851 51.3258 101.108 50.9984 101.334C48.4083 103.07 45.3857 103.55 44.3117 105.816C42.2645 106.897 40.3007 108.076 38.5054 109.402C33.4902 113.132 29.3936 118.167 25.3731 123.25L25.4472 123.145C25.3701 123.236 25.4034 123.274 25.5394 122.875C25.6013 122.676 25.6629 122.28 25.5537 121.865C25.5046 121.671 25.4223 121.484 25.328 121.332C25.247 121.201 25.1639 121.101 25.0859 121.021C24.7915 120.74 24.7175 120.756 24.6981 120.741C24.6823 120.739 24.7297 120.762 24.787 120.782C25.0421 120.876 25.5207 120.98 25.9523 121.06C26.8709 121.227 27.852 121.357 28.8459 121.484C30.8259 121.734 32.8775 121.967 34.8889 122.234C35.0589 122.255 34.7362 122.831 35.072 122.869C39.0041 123.314 38.2562 122.375 40.9313 121.315C41.5426 121.048 43.6051 122.426 43.7436 122.526C44.3764 122.898 43.7019 123.762 43.9149 123.835C45.7136 124.412 45.4415 121.524 47.8776 121.547C47.9551 121.553 47.6246 122.081 47.8319 122.136C48.5018 122.308 49.0734 122.102 49.6984 122.29C51.1366 122.723 51.5908 124.129 53.7879 123.324C54.0597 123.219 53.6825 121.582 55.8051 121.667C56.6161 121.7 59.8075 121.686 61.2466 121.762C61.3634 121.769 61.4664 121.778 61.551 121.787C62.5302 121.893 61.8576 122.421 61.9265 122.443C64.7067 123.14 63.6781 123.429 65.2182 124.461C66.6183 125.488 66.2058 123.035 66.7751 122.76C67.3199 122.487 69.4802 123.059 70.0604 123.257C70.6214 123.456 69.9217 123.793 70.422 123.905C73.3487 124.639 71.7035 122.685 72.6805 122.293C75.0253 121.366 77.0403 123.18 79.102 123.352C79.6852 123.399 79.2071 122.986 79.729 122.946C81.7816 122.792 83.2328 123.355 85.4514 122.827C85.8248 122.741 87.7123 121.641 88.9881 122.439C89.1685 122.554 88.6578 123.01 89.5688 123.108C91.0115 123.256 93.2368 123.347 94.6749 123.19C95.7226 123.074 94.5149 122.331 95.8417 122.558C96.4344 122.66 95.3372 123.101 96.4525 123.255C97.564 123.409 100.455 123.379 101.455 123.36C102.502 123.34 101.927 122.775 102.011 122.737C102.519 122.516 104.559 122.235 104.745 122.235C113.912 122.128 122.277 123.046 131.208 122.688C131.898 122.661 131.436 122.066 131.541 122.055C133.908 121.794 132.046 123.392 133.71 123.916C133.464 122.704 134.443 122.919 136.139 122.778C136.956 122.709 136.509 122.241 136.583 122.193C137.794 121.474 138.653 122.391 138.873 122.578C139.707 123.267 140.519 122.444 141.064 122.905C141.601 123.362 140.373 124.05 141.967 124.034C142.412 123.597 141.221 122.469 142.433 122.279C147.034 121.561 155.665 122.407 159.398 122.48C163.167 122.553 164.301 122.467 166.462 122.612C170.358 122.875 168.927 122.041 171.358 121.642C173.804 121.244 172.626 123.321 172.981 123.765C173.329 124.208 173.705 123.748 174.138 123.99C174.568 124.232 173.645 124.54 174.648 124.626C175.636 124.713 178.351 123.906 178.704 123.438C179.447 122.448 178.208 121.42 180.856 121.769C181.008 121.789 180.517 122.337 181.101 122.389C185.767 122.782 190.539 122.781 195.179 123.125C195.817 123.173 195.251 123.782 195.622 123.817C199.492 124.182 198.122 123.168 200.216 122.021C199.754 123.534 200.918 124.451 203.837 124.443C205.594 124.439 205.288 123.781 206.423 123.309C206.763 123.167 208.013 123.612 208.237 123.301C208.977 122.282 207.793 121.155 210.824 121.588C210.957 121.609 210.537 122.166 210.996 122.197C213.961 122.399 214.293 121.337 217.487 121.189C219.984 121.073 224.469 121.692 227.308 121.779C227.258 123.477 229.947 123.071 231.033 121.894C232.883 121.93 234.883 121.851 236.675 122.001C237.291 122.052 236.889 122.547 236.968 122.599C238.165 123.425 238.961 122.281 239.361 122.233C243.689 121.771 247.22 122.611 251.345 121.74C251.492 121.708 251.722 120.527 252.835 121.381C252.906 121.44 251.543 121.986 253.49 122.014C255.438 122.043 259.108 122.65 261.796 122.085C262.446 121.949 264.088 120.98 265.427 121.718C265.604 121.819 265.413 122.158 265.67 122.345C266.501 122.939 266.944 121.744 267.921 122.749C268.898 123.755 270.922 124.499 273.631 123.781C273.717 123.76 274.353 122.811 275.205 122.82C276.555 122.835 278.524 123.017 279.951 123.001C280.636 122.993 280.193 122.409 280.312 122.398C284.925 122.035 288.127 122.534 293.102 122.724C294.008 122.76 296.596 121.94 298.337 122.559C300.256 123.236 298.292 126.132 302.703 125.411C304.495 125.123 306.732 121.451 309.927 123.318C316.071 122.8 321.851 123.721 328.064 122.997C328.345 122.965 329.227 121.938 329.887 121.946C330.866 121.96 331.404 122.432 332.099 122.457C335.004 122.575 337.631 122.144 340.496 122.181C341.571 122.194 341.201 122.69 342.477 122.706C343.749 122.722 344.588 122.065 346.292 122.362C347.558 122.589 348.907 123.903 350.661 124.041C350.714 122.732 351.923 122.747 354.024 122.381C354.427 122.31 353.99 121.859 354.18 121.802C354.956 121.559 355.675 121.93 356.403 121.667C356.58 121.604 356.584 121.157 356.728 121.08C357.927 120.41 360.054 121.394 360.416 121.565C361.806 122.216 362.439 121.628 363.486 121.879C364.529 122.13 362.978 122.473 364.193 122.619C366.686 122.922 369.919 122.815 372.526 122.806C373.551 122.8 372.845 122.212 372.991 122.197C375.121 122.022 377.154 122.633 378.345 121.431C379.886 124.485 379.676 121.118 382.709 121.696C382.946 121.743 383.266 123.192 382.357 123.416C381.448 123.64 380.042 123.203 378.737 123.551C378.403 123.633 376.734 125.013 376.51 125.098C374.719 125.763 374.426 123.596 374.331 123.477C373.227 122.203 371.122 123.693 370.556 123.8C367.905 124.294 365.92 124.009 363.781 124.363C362.398 124.592 362.274 126.015 361.173 125.983C357.433 125.877 356.313 123.904 352.896 125.658C352.165 126.032 352.919 127.579 350.26 126.383C350.109 126.307 348.06 125.208 347.001 125.926C346.864 126.016 346.872 126.469 346.69 126.509C345.465 126.767 344.639 126.413 343.288 126.599C341.937 126.784 340.299 127.057 338.725 126.917C337.776 126.834 336.549 126.001 336.119 125.798C334.871 125.214 333.537 126.202 332.752 125.488C331.959 124.771 333.488 123.657 331.42 123.207C331.354 124.385 331.188 125.594 331.076 126.779C326.493 126.777 322.089 126.434 317.521 126.524C316.954 126.536 317.539 127.164 316.931 127.194C314.348 127.316 312.136 126.883 309.508 127.083C307.47 127.241 305.225 127.929 303.067 128.115C301.711 126.779 298.595 127.26 296.282 127.155C295.474 127.118 295.525 126.758 294.949 126.645C292.775 126.228 293.801 127.41 293.206 127.602C290.66 128.421 290.381 125.729 287.402 125.818C287.244 125.822 285.316 127.272 285.048 127.363C283.352 127.959 284.764 126.866 283.698 126.767C281.75 126.588 280.393 126.255 278.1 126.692C277.429 126.822 275.833 127.728 274.543 127.045C274.373 126.956 274.463 126.48 274.326 126.454C271.851 126.008 271.795 127.5 270.383 128.015C268.97 128.53 266.769 127.516 266.32 127.222C265.146 126.463 267.213 126.888 267.276 126.812C268.012 125.911 266.414 126.076 265.189 126.009C265.002 124.548 263.29 124.648 263.919 125.945C263.991 126.087 264.943 125.944 265.189 126.009C264.12 127.451 262.254 127.648 260.177 126.321C259.204 125.7 260.116 124.961 257.174 125.249C255.838 125.379 256.362 126.382 255.184 126.665C252.49 127.309 248.98 126.394 246.206 126.56C245.198 126.62 246.184 127.165 245.495 127.225C243.668 127.387 242.053 126.984 240.217 127.208C240.051 127.229 240.462 127.803 239.891 127.814C235.562 127.909 231.783 127.564 227.269 127.582C225.095 127.591 221.174 127.934 218.913 127.884C214.994 127.8 210.172 126.991 206.811 127.214C204.626 127.358 205.11 127.932 204.177 128.331C202.373 129.104 199.198 127.757 198.753 127.548C198.745 127.541 200.616 127.394 199.616 127.104C199.033 126.49 198.773 127.545 198.753 127.548C198.465 127.413 194.692 127.304 193.948 127.419C193.543 127.482 193.773 128.027 193.562 128.049C188.564 128.567 183.501 128.735 178.419 128.507C178.329 128.497 178.46 127.884 178.25 127.867C175.323 127.611 173.436 128.37 170.985 128.827C168.543 129.284 166.621 129.146 165.187 128.104C163.383 128.246 160.726 127.795 159.196 127.522C157.67 127.248 157.467 128.439 157.333 128.464C153.171 129.238 150.839 128.569 146.459 128.485C144.374 128.443 140.424 128.635 138.15 128.776C136.368 128.889 135.303 128.616 133.688 128.802C133.47 128.827 133.693 129.355 133.627 129.376C131.832 130.019 132.691 128.719 132.319 128.489C130.963 127.654 130.19 127.21 127.856 127.616C127.31 127.71 125.741 129.582 124.765 129.696C123.497 129.84 123.971 129.169 122.653 129.337C122.54 129.351 122.564 129.763 121.755 129.749C118.114 129.686 113.729 129.465 109.925 129.523C109.401 129.529 110.076 130.18 109.319 130.2C105.577 130.293 101.69 130.285 98.0935 129.992C97.1967 129.918 97.7571 129.458 97.5621 129.323C96.3639 128.504 94.7193 129.706 94.4512 129.73C88.0684 130.328 82.8412 129.263 76.4149 129.796C76.0102 129.827 73.1356 131.117 71.9668 130.019C71.8478 129.946 70.8262 128.824 69.5847 129.595C69.5159 129.643 70.3159 130.221 68.9184 130.165C67.4694 130.108 65.6507 130.498 63.5794 129.863C63.136 129.713 62.2491 129.047 61.2435 129.096C60.8473 129.112 60.4245 129.209 59.9837 129.434C59.8522 129.496 57.2262 131.515 56.2326 130.116C56.0815 129.885 56.2302 128.41 54.1939 129.159C53.7868 129.304 54.5199 129.637 53.4535 129.837C51.8522 130.146 49.7269 129.737 47.7675 130.376C47.3918 130.489 45.9907 131.478 44.777 130.701C44.5928 130.579 44.9501 130.091 44.3275 130.028C41.3872 129.724 38.2784 129.997 35.2757 129.563C34.2425 129.41 34.765 128.63 33.6733 128.378C32.5594 128.126 30.3254 127.819 29.1151 128.103C27.8455 128.381 29.1401 129.752 27.2548 129.708C26.2832 129.675 25.3431 129.625 24.1371 129.451C23.5269 129.348 22.9285 129.291 21.6799 128.854C21.3954 128.749 20.9069 128.553 20.3816 128.244C20.0498 128.05 19.6626 127.79 19.2605 127.437C18.7732 127.001 18.237 126.453 17.7145 125.483C17.1808 124.5 16.8868 123.204 16.9393 122.096C16.9812 121.007 17.2564 120.213 17.4589 119.716C17.9059 118.691 18.1606 118.43 18.2207 118.316C18.2623 118.256 18.3862 118.077 18.4311 118.019C22.0058 113.297 26.26 108.832 31.1816 104.706C32.1489 103.914 31.0444 104.225 32.4973 103.045C32.7385 102.853 32.9906 102.655 33.2518 102.454C38.8009 98.1014 47.5189 93.7188 51.8661 92.1141C51.9473 92.0839 52.0277 92.0545 52.1075 92.026C56.1089 90.5884 51.8584 93.7488 54.7791 92.4099C56.1882 91.7616 56.8876 89.6444 57.1878 89.4158C60.1027 87.172 62.6312 86.4617 65.3966 84.6497C65.9692 84.2748 65.0908 84.0869 65.5813 83.7739C67.2556 82.7 69.2105 81.9048 70.8602 80.9368C71.5984 80.5025 71.244 80.1758 71.9527 79.8277C73.4643 79.0814 74.8797 78.5019 76.4827 78.0469C76.6781 77.9942 76.8777 77.9426 77.082 77.892C77.2452 77.8514 76.529 78.8632 77.7474 78.2554C79.7244 77.2667 82.3609 76.3643 84.4197 74.7906C85.0351 74.3192 84.5638 73.3867 86.3494 73.2636C86.7222 73.2379 86.9135 74.5549 88.0972 72.708C88.2901 72.4031 90.4426 69.6196 92.2679 69.7262C92.7502 69.7531 94.162 70.1718 94.8969 69.6045C94.9949 69.5242 94.2941 69.2577 94.9402 68.8574C97.2209 67.456 99.7317 66.213 102.094 64.7924C102.728 64.4106 101.485 64.3995 102.437 63.8476C105.048 62.3322 108.473 60.7481 111.216 59.583C112.221 59.158 111.762 59.9245 111.857 59.9358C113.386 60.1255 113.542 58.7689 113.906 58.5151C116.122 56.9843 118.194 56.5893 120.419 55.4293C121.041 55.1091 120.365 54.8113 120.473 54.7094C121.628 53.6773 121.015 55.0221 121.907 54.752C123.162 54.3823 124.456 53.9047 126.024 53.4077C127.227 53.0373 128.423 52.6079 129.556 52.1854C130.385 51.8749 129.238 51.5947 129.984 51.3223C134.388 49.6967 139.016 48.0663 143.417 46.7331C144.248 46.4816 143.918 47.1351 144.127 47.1737C145.571 47.451 146.865 45.783 147.207 45.5335C147.387 45.4038 147.555 45.2912 147.713 45.1923C149.017 44.3912 149.85 44.4112 151.215 43.7725C154.962 42.0082 159.177 40.2255 162.892 38.3257C164.738 37.38 166.463 36.3813 167.682 35.4531C168.287 34.9972 168.749 34.5564 168.968 34.2993C169.201 34.0328 169.131 34.0464 169.103 34.3777C169.101 34.4004 169.1 34.4239 169.099 34.4479C169.592 31.4334 168.687 28.9239 168.773 29.2025C165.685 26.5796 160.908 24.4378 155.654 22.9036C155.098 22.7437 155.47 23.5345 154.989 23.4064C152.693 22.7902 150.364 22.2174 148.168 21.8206C143.751 21.0238 139.652 20.1428 135.401 19.5643C134.843 19.486 135.545 20.228 134.642 20.1227C132.819 19.9164 130.515 19.5238 128.692 19.0547C127.791 18.8253 129.1 18.4837 128.184 18.2628C126.093 17.754 123.811 17.3897 121.614 17.1931C120.666 17.1092 121.986 17.9236 120.788 17.77C114.534 16.9813 108.34 16.3045 102.051 15.2524C99.9628 14.9071 97.9192 14.489 95.9127 14.0272C95.3447 13.8968 95.0079 12.5582 93.7642 12.6493C93.6287 12.9911 93.5816 13.4072 93.4946 13.7798C86.4844 13.0018 79.5979 12.4101 72.5261 12.0428C67.63 11.7877 62.658 11.6272 57.6654 11.5765C57.1516 11.5717 58.0371 12.2547 57.042 12.2492C51.2967 12.2218 45.7134 12.4563 39.8222 11.9009C39.2391 11.8474 39.5107 10.6441 37.7936 10.8648C37.5334 10.8988 35.5689 11.0709 34.6142 11.2994C34.4609 11.3357 34.3335 11.3732 34.2425 11.4115C34.153 11.4534 34.6408 11.9971 33.8085 12.0384C28.9709 12.2691 23.8961 12.3611 19.0405 12.2839C18.2561 12.2705 19.0564 11.6316 18.4964 11.617C14.5287 11.518 10.256 12.243 6.43338 11.9595C3.87291 11.7681 4.74204 10.68 3.32426 9.76295C3.12349 9.63359 1.54917 9.71897 1.42744 9.13761C1.11708 7.67593 1.76815 6.0073 1.34731 4.45547C1.25789 4.1211 -0.824554 4.63108 0.366848 3.72633C0.4501 3.66552 1.96009 3.28864 2.31771 2.98507C2.56686 2.77503 2.05318 2.21043 2.57169 1.9279C3.0903 1.64563 3.71284 2.10581 4.58154 1.75673C5.45012 1.40431 5.01323 0.750962 6.78458 0.551978ZM152.385 126.298C150.998 125.734 150.805 127.828 152.299 127.32C152.371 127.293 152.457 126.326 152.385 126.298ZM322.078 124.855C320.248 123.947 319.002 125.315 320.301 126.017C321.598 126.719 322.635 125.13 322.078 124.855ZM341.097 124.014C338.932 123.305 338.617 126.277 340.926 125.656C341.06 125.621 341.223 124.055 341.097 124.014ZM9.56091 9.05702C9.54066 9.03035 8.40769 9.07722 8.38329 9.10656C7.8257 9.80938 10.087 9.71537 9.56091 9.05702ZM359.932 123.098C359.231 122.703 357.32 123.186 358.147 123.677C358.807 124.073 360.793 123.589 359.932 123.098ZM79.163 124.374C79.1397 124.343 78.3436 124.317 78.3613 124.494C78.4138 125.061 79.5266 124.898 79.163 124.374ZM392.035 122.694C387.335 122.644 384.235 120.23 389.559 120.439C390.509 120.476 387.519 121.247 388.734 121.453C390.955 121.827 392.364 120.268 394.498 121.064C394.891 121.209 392.312 122.702 392.026 122.697C392.029 122.696 392.032 122.695 392.035 122.694ZM151.575 123.787C151.548 123.76 150.438 123.739 150.401 123.767C149.798 124.435 152.055 124.477 151.575 123.787ZM31.8775 122.69C31.7812 122.631 29.2506 122.438 29.1388 122.478C27.7061 123.486 32.9719 123.897 31.8775 122.69ZM227.353 121.824C228.575 121.148 230.043 121.06 231.027 121.893C229.807 121.856 228.579 121.857 227.353 121.824Z" fill="#9B54D7"/>
<path d="M67.3077 7.93653C67.4408 9.00129 67.182 10.3542 66.8637 11.4112C66.7651 11.7373 66.4024 11.5527 66.3176 11.7761C66.1522 12.2153 66.3151 12.6191 66.1216 13.0629C66.0558 13.2071 65.4776 12.9958 65.422 13.1475C65.1218 13.9798 65.2338 14.7583 65.0668 15.6112C64.2468 19.7358 63.8144 23.8403 63.3174 28.0401C63.1541 29.4255 62.528 31.0829 62.6797 32.536C62.6979 32.7047 63.2186 32.6341 63.2593 32.6683C63.881 33.2037 62.8509 32.9737 62.694 33.297C62.075 34.5626 61.9445 36.0049 62.0712 37.258C62.1263 37.797 63.1803 37.3218 62.575 37.8245C62.534 37.8594 61.9949 37.6928 61.9281 37.835C61.7778 38.1573 61.8392 38.7863 61.7808 39.0415C61.6656 39.5305 61.6666 39.607 61.633 40.0755C61.5823 40.7133 61.266 41.4537 61.3498 42.1433C61.3693 42.2903 61.9413 42.1309 62.0231 42.3681C62.1046 42.6069 62.0208 43.2209 61.8765 43.4197C61.7321 43.619 61.2966 43.5049 61.1935 43.5356C60.3232 43.7878 61.4621 44.5699 61.486 44.6626C61.8857 46.3616 61.1296 47.7534 61.0418 49.3197C60.9765 50.509 61.1267 51.7932 61.0336 52.9214C60.9723 53.6506 60.8381 54.3056 60.724 54.9735C60.626 55.5538 60.5389 56.1316 60.5206 56.7494C60.5157 56.8911 61.1859 56.7707 61.1812 56.9445C61.1291 58.792 60.8927 60.6039 60.2679 62.362C60.2046 62.5379 59.6512 62.2474 59.5536 62.4193C58.9689 63.4762 57.6438 65.0816 60.0811 66.0079C59.9016 66.7404 59.7005 67.6279 59.1214 68.2331C58.7487 68.6233 58.1668 68.1394 58.3766 68.6934C58.4232 68.818 58.99 68.7255 59.0183 68.9075C59.1371 69.6749 58.8692 70.4678 59.0744 71.2334C59.1175 71.3894 59.6147 71.4011 59.6989 71.4529C60.3795 71.8838 59.1291 72.349 59.0294 72.4689C58.2832 73.3835 58.4645 74.1271 58.3616 75.0376C58.3376 75.2491 59.024 75.0618 59.0248 75.2672C59.02 76.3302 58.8678 77.4123 58.4926 78.4191C58.4075 78.6431 57.8587 78.3881 57.7891 78.4931C57.4895 78.9596 58.5497 79.1447 58.2855 79.5911C58.2312 79.6856 57.7509 79.5961 57.6965 79.6102C56.8417 79.832 58.0083 80.1565 58.0296 80.2295C58.1888 80.732 57.8957 81.1041 57.61 81.4874C57.3642 81.8252 57.1229 82.163 57.1784 82.5816C57.194 82.6901 57.8219 82.4861 57.8282 82.7889C57.8738 84.8065 57.5586 86.9237 56.9174 88.8718C56.8185 89.1749 56.3752 88.9193 56.317 88.9344C55.4067 89.1825 56.5782 89.477 56.6151 89.5808C56.8759 90.3917 55.8194 91.0652 57.1889 91.7144C56.4218 95.0233 56.8965 98.4644 55.2854 101.645C55.2664 101.685 54.691 101.549 54.6555 101.63C54.2205 102.615 55.1476 102.514 56.1841 103.302C56.4446 103.499 55.0501 103.872 54.947 103.906C54.5674 104.033 53.7189 103.766 53.6428 103.814C53.0429 104.212 55.9194 104.454 55.8518 105.071C55.8449 105.09 55.326 104.95 55.2678 104.996C55.0851 105.138 55.2773 105.32 55.0776 105.46C54.6162 105.777 53.2085 105.748 53.9568 106.39C54.0541 106.471 55.6925 106.551 55.5528 107.091C55.4952 107.312 55.4096 108.292 55.2724 108.55C55.1353 108.808 54.6333 108.561 54.6084 108.577C53.829 109.232 53.5746 108.92 52.5056 109.166C51.4404 109.412 53.8889 109.6 54.143 109.782C54.3963 109.964 53.7608 110.43 53.5459 110.541C53.3311 110.65 53.0184 110.444 52.8917 110.549C52.0627 111.24 54.0593 111.038 54.4147 111.341C55.257 112.054 53.3923 112.31 53.1473 112.841C53.081 112.984 53.5074 112.913 53.5294 113.051C53.6117 113.592 53.0079 113.847 53.4496 114.51C53.5214 114.62 54.5471 115.234 53.7102 115.454C53.5898 115.485 53.1558 115.301 53.0266 115.514C52.8328 115.835 52.659 116.42 52.7633 116.803C52.8406 117.086 53.6207 116.872 53.3478 117.18C53.226 117.317 52.8275 116.985 52.6349 117.246C52.4425 117.506 52.3721 118.214 52.352 118.492C52.3328 118.765 52.9139 118.688 52.949 118.715C53.1491 118.875 53.3544 119.427 53.348 119.473C53.1237 121.79 51.904 123.812 51.9471 126.099C51.9498 126.278 52.5573 126.232 52.5638 126.26C52.7404 126.891 51.2196 126.226 50.641 126.586C51.8527 126.668 51.6044 126.894 51.6865 127.336C51.7271 127.548 52.2066 127.491 52.2522 127.515C52.9251 127.901 51.986 128.003 51.7923 128.038C51.0801 128.161 51.8687 128.475 51.3927 128.559C50.9201 128.644 50.2785 128.251 50.2407 128.662C50.6592 128.825 51.8207 128.65 51.9685 128.979C52.5256 130.225 51.4138 132.304 51.2359 133.236C51.1499 133.68 51.1181 133.98 51.0859 134.231C51.0498 134.514 51.0131 134.735 50.9057 135.016C50.5353 135.984 51.4066 135.687 51.7353 136.344C52.0641 136.999 50.0277 136.514 49.5763 136.565C49.1253 136.613 49.5732 136.748 49.3199 136.835C49.0668 136.921 48.7859 136.661 48.6719 136.907C48.5584 137.149 49.2851 137.92 49.7408 138.052C50.7064 138.329 51.7651 138.108 51.3434 138.748C51.3185 138.785 50.7871 138.612 50.7192 138.755C50.1974 139.896 50.0627 141.125 49.59 142.262C49.5239 142.421 48.9333 142.222 48.888 142.313C48.4149 143.266 49.4637 143.002 50.5468 143.638C49.0531 143.384 48.1065 143.6 48.0316 144.347C47.9863 144.793 48.6501 144.774 49.0878 145.102C49.2198 145.2 48.7404 145.482 49.0443 145.566C50.0376 145.845 51.1944 145.648 50.6766 146.374C50.6522 146.405 50.1088 146.25 50.0651 146.363C49.78 147.091 50.8275 147.286 50.8844 148.102C50.928 148.755 50.184 149.829 50.0153 150.545C48.3256 150.378 48.6521 151.101 49.7937 151.483C49.7047 151.947 49.7255 152.465 49.5243 152.906C49.4556 153.057 48.9749 152.911 48.9203 152.926C48.0637 153.155 49.1804 153.458 49.2157 153.565C49.5507 154.71 48.6128 155.522 49.36 156.656C49.387 156.696 50.5565 156.86 49.6742 157.063C49.6134 157.076 49.1093 156.682 49.0246 157.173C48.9393 157.669 48.2276 158.546 48.7121 159.277C48.8288 159.453 49.7451 159.964 48.9706 160.233C48.8654 160.269 48.5328 160.191 48.3396 160.239C47.724 160.394 48.9013 160.614 47.8707 160.774C46.8402 160.934 46.04 161.377 46.6752 162.133C46.6935 162.157 47.6205 162.402 47.5867 162.618C47.5312 162.969 47.2926 163.439 47.2668 163.806C47.2547 163.981 47.849 163.92 47.857 163.951C48.0828 165.146 47.4888 165.938 47.1538 167.17C47.0915 167.393 47.8306 168.129 47.1624 168.513C46.43 168.945 43.6039 168.194 44.1905 169.375C44.4246 169.853 48.0157 170.739 46.0593 171.39C46.1612 171.886 46.1284 172.365 46.0505 172.826L46.0579 172.775C45.7601 173.801 45.2394 174.764 45.4866 175.934C45.503 176.006 46.4606 176.427 46.4159 176.587C46.3472 176.827 45.8544 176.868 45.7898 177.041C45.512 177.741 45.7881 178.495 45.5999 179.187C45.5292 179.453 45.0613 179.268 44.9771 179.587C44.8934 179.906 45.4958 180.228 45.1123 180.609C44.8205 180.896 43.4568 181.003 43.2308 181.418C44.5191 181.648 44.4416 181.947 44.6959 182.535C44.7453 182.648 45.2128 182.611 45.2593 182.669C45.4593 182.901 45.0572 183.024 45.2795 183.252C45.3329 183.307 45.7738 183.379 45.8424 183.428C46.4418 183.847 45.3672 184.21 45.1805 184.271C44.4699 184.513 45.0197 184.76 44.7199 184.985C44.421 185.206 44.158 184.766 43.9539 185.046C43.5301 185.636 43.4759 186.465 43.3507 187.1C43.3028 187.358 43.9203 187.279 43.9271 187.318C43.9879 187.881 43.2686 188.292 44.3755 188.817C43.5011 188.756 43.1412 188.753 43.056 188.801C43.0531 188.811 43.0495 188.843 43.0475 188.854C42.8423 189.012 44.4235 189.303 43.9418 189.803C43.8879 189.857 42.4323 189.834 42.2388 189.572C42.0761 189.35 42.3965 189.078 42.3286 188.771C42.333 188.748 42.3407 188.678 42.3472 188.655C42.3382 188.604 42.3157 188.55 42.2742 188.492C42.214 188.4 40.9525 187.745 40.8802 187.678C40.3227 187.138 42.4718 187.44 42.5939 187.435C43.9097 187.377 42.5487 186.606 42.4694 186.458C42.1114 185.752 42.4958 185.259 42.2514 184.672C42.094 184.289 40.694 184.037 40.7804 183.765C41.0675 182.862 43.077 182.857 41.521 181.713C41.1894 181.469 39.6253 181.397 40.9424 180.928C41.0257 180.896 42.211 180.589 41.5638 180.179C41.4821 180.128 41.0356 180.051 41.0061 179.998C40.8173 179.643 41.2114 179.482 41.1012 179.11C40.9929 178.726 40.8133 178.265 41.0361 177.896C41.1695 177.675 42.0569 177.514 42.2803 177.442C42.9245 177.229 42.0297 176.704 42.7753 176.639C43.525 176.572 44.5322 177.168 45.0915 176.728C43.9389 176.489 42.7602 176.221 41.6032 175.97C41.863 174.822 42.4597 173.76 42.6428 172.596C42.6644 172.452 42.0146 172.472 42.0219 172.313C42.0281 172.192 42.0518 172.075 42.0863 171.962L42.0114 172.479C42.1047 171.975 42.4205 171.516 42.3217 170.951C42.2257 170.419 41.6079 169.787 41.4869 169.228C42.8576 169.008 42.4722 168.159 42.6456 167.585C42.7059 167.382 43.063 167.427 43.1928 167.29C43.6729 166.777 42.4649 166.932 42.2915 166.765C41.552 166.042 44.2397 166.227 44.2405 165.45C44.2417 165.407 42.854 164.792 42.771 164.714C42.2282 164.228 43.2751 164.686 43.4047 164.422C43.6408 163.945 44.0129 163.625 43.6445 163.01C43.5351 162.832 42.6795 162.342 43.3978 162.074C43.4919 162.039 43.9626 162.104 43.9933 162.072C44.5097 161.485 43.0262 161.331 42.5545 160.929C42.0827 160.528 43.1576 160.054 43.463 159.968C44.2533 159.74 43.7699 160.222 43.8433 160.247C44.7196 160.516 44.6018 160.091 44.7042 159.791C46.1646 159.875 46.1153 159.432 44.8047 159.476C44.6615 159.481 44.7761 159.735 44.7042 159.791C43.2988 159.396 43.1582 158.895 44.5395 158.49C45.1871 158.298 45.8964 158.595 45.6954 157.82C45.6045 157.472 44.5901 157.514 44.343 157.19C43.7799 156.444 44.7939 155.634 44.7081 154.92C44.6772 154.658 44.1062 154.86 44.0662 154.68C43.9586 154.195 44.406 153.829 44.2364 153.34C44.2203 153.296 43.6365 153.349 43.642 153.202C43.6722 152.095 44.1248 151.168 44.2366 150.016C44.2901 149.462 44.0608 148.441 44.1755 147.868C44.3706 146.88 45.3142 145.729 45.1872 144.851C45.1061 144.287 44.5206 144.358 44.1499 144.085C43.4315 143.558 44.8633 142.862 45.0833 142.773C45.0906 142.771 45.1841 143.258 45.5015 143.031C46.1293 142.937 45.0855 142.779 45.0833 142.773C45.2254 142.717 45.4414 141.76 45.3477 141.567C45.2967 141.46 44.7471 141.469 44.7308 141.413C44.3565 140.091 44.3317 138.794 44.7005 137.525C44.7135 137.503 45.3195 137.592 45.3426 137.539C45.6806 136.803 44.9766 136.272 44.5896 135.606C44.2024 134.945 44.3933 134.475 45.4717 134.197C45.445 134.055 45.472 133.899 45.5316 133.74C45.6731 133.359 45.9995 132.963 46.2231 132.704C46.5409 132.336 45.3614 132.17 45.3414 132.132C44.6978 130.974 45.4411 130.415 45.6671 129.316C45.7771 128.788 45.7232 127.726 45.661 127.136C45.609 126.676 45.918 126.437 45.7905 125.998C45.7736 125.939 45.2405 125.933 45.2223 125.914C44.6478 125.376 45.9078 125.752 46.1489 125.684C47.0257 125.44 47.4961 125.282 47.1754 124.64C47.1018 124.495 45.2984 123.873 45.2209 123.611C45.1235 123.27 45.772 123.474 45.6534 123.114C45.6439 123.083 45.2336 123.039 45.2774 122.834C45.4757 121.878 45.8468 120.854 45.9324 119.849C45.9456 119.712 45.2743 119.805 45.2828 119.606C45.3236 118.666 45.4764 117.657 45.894 116.799C45.9988 116.588 46.4358 116.784 46.5768 116.753C47.4307 116.562 46.2974 115.991 46.2836 115.919C45.9205 114.208 47.1531 113.079 46.8464 111.347C46.8282 111.248 45.64 110.401 46.7695 110.221C46.8446 110.208 47.999 110.034 47.2685 109.667C47.2228 109.644 46.6245 109.768 46.7237 109.437C46.8222 109.112 46.5023 108.529 47.1891 108.14C47.4056 108.015 48.5608 107.802 47.7229 107.264C47.6643 107.229 45.7332 106.324 47.1473 106.242C47.3799 106.229 48.8428 106.436 48.1496 105.834C48.015 105.719 47.6673 105.861 47.4926 105.577C47.2229 105.144 47.677 104.647 47.0772 104.088C46.971 103.99 46.015 103.517 46.8034 103.307C46.9269 103.275 47.4074 103.416 47.4792 103.267C47.8242 102.549 47.5772 101.761 47.9959 101.041C48.1432 100.786 48.9214 101.007 49.1626 100.754C49.4036 100.502 49.6654 99.9657 49.3327 99.6374C48.9998 99.3094 47.7038 99.4989 47.6468 99.0529C47.3965 97.138 48.3148 95.3507 48.59 93.4763C48.6307 93.1998 48.1577 93.3904 48.1847 92.9822C48.2854 91.4624 48.0693 88.8342 49.129 87.5851C49.9782 86.5912 50.4681 87.9548 50.8411 87.1766C51.0193 86.8 49.5763 86.2728 49.5365 86.1759C49.1309 85.2177 49.8258 84.6399 49.6799 83.796C49.6495 83.6221 49.0413 83.751 49.022 83.6036C48.951 83.0945 49.2497 82.6035 49.2301 82.126C49.2198 81.9124 48.7611 81.9237 48.8082 81.7305C48.8685 81.4702 48.9632 81.2283 49.1153 80.9886C49.2344 80.7919 49.3888 80.5983 49.5892 80.4002C49.6309 80.3593 50.1801 80.688 50.224 80.3273C50.2936 79.742 50.7653 79.0467 50.3807 78.3444C50.2648 78.1357 49.2235 78.0459 49.9765 77.6732C50.134 77.5948 51.3751 77.8103 50.3348 77.2252C50.1616 77.128 48.7747 76.1644 49.7505 75.835C50.0072 75.7483 51.0542 75.5648 50.9152 75.3127C50.8925 75.2781 50.3218 75.3566 50.2853 75.1542C50.1664 74.443 50.2961 73.7199 50.1922 72.9932C50.1634 72.7987 49.5571 73.024 49.5328 72.7349C49.4649 71.9412 49.7137 70.9867 49.9755 70.2529C50.0732 69.9818 50.5308 70.2258 50.5851 70.2111C51.4667 69.9773 50.3448 69.6626 50.2899 69.5477C49.9639 68.8338 50.5567 68.3848 50.4825 67.7564C50.4635 67.5829 49.9055 67.6426 49.8606 67.6035C49.4248 67.2016 50.3742 67.5701 50.5065 67.3613C50.8803 66.7772 50.913 66.0846 50.9117 65.4569C50.9105 65.226 50.2506 65.4127 50.2568 65.2062C50.2811 63.9843 50.4759 62.7457 50.9421 61.6187C51.031 61.4068 51.504 61.5935 51.6198 61.5591C52.4297 61.3216 51.4137 60.7546 51.3227 60.6401C50.9074 60.1147 51.3556 59.971 51.3142 59.5402C51.1532 57.9301 51.3934 56.0985 51.6218 54.4801C51.6936 53.9511 51.7682 53.4526 51.8356 52.9811C52.2089 50.3545 52.7912 48.3394 52.8167 45.8234C52.8189 45.6635 52.1597 45.7865 52.1533 45.6481C52.1002 43.8639 52.457 42.1339 52.3734 40.3485C52.3677 40.2026 51.7394 40.3757 51.7095 40.1401C51.6439 39.6559 51.713 39.049 51.9379 38.5776C52.0466 38.3466 52.5566 38.6949 52.6552 38.4616C52.8861 37.9128 52.9639 37.3331 52.8985 36.7518C52.8692 36.5075 52.218 36.8342 52.2288 36.5217C52.2904 34.3784 52.3017 32.2711 53.2381 30.1525C53.3024 30.0075 54.5907 29.9435 54.3625 29.6161C54.0083 29.5729 53.5901 29.5511 53.2108 29.5198C53.1783 26.398 53.7866 23.3382 54.0157 20.2103C54.0253 20.0772 53.3347 20.2729 53.3498 20.0147C53.4348 18.5487 53.3192 17.0981 54.0685 15.6205C54.1419 15.4747 55.3323 15.6113 55.1734 15.1607C55.1443 15.082 55.0179 14.4034 54.7672 14.2145C54.7292 14.1898 54.166 14.282 54.1601 14.069C54.1355 12.8327 54.3258 11.5292 54.7258 10.2922C54.7915 10.091 55.3749 10.3363 55.4268 10.1931C55.7892 9.21236 55.3914 8.04885 55.9742 7.12853C56.3672 6.49795 57.3824 6.78481 58.4086 6.48485C58.5533 6.44261 58.5947 6.03692 59.1834 6.04251C60.6638 6.05628 62.2731 6.32849 63.8522 6.31984C64.1923 6.31881 63.8521 5.75261 64.6571 6.11559C64.7109 6.1411 64.9648 6.55053 65.2385 6.66029C65.4277 6.73687 66.0311 6.64243 66.2709 6.7919C66.5105 6.94127 66.0024 7.06955 66.2812 7.30998C66.5635 7.55001 67.2481 7.48292 67.3077 7.93653ZM47.6499 131.067C48.2556 130.767 46.1789 130.496 46.6366 130.939C46.6612 130.96 47.6201 131.083 47.6499 131.067ZM44.0101 174.073C45.0063 173.798 43.7405 173.206 42.9748 173.397C42.2101 173.587 43.7081 174.157 44.0101 174.073ZM43.7643 179.011C44.5782 178.596 41.6727 177.979 42.1575 178.676C42.1848 178.717 43.7171 179.035 43.7643 179.011ZM58.6223 8.09255C58.6504 8.0861 58.6907 7.80302 58.6635 7.7948C58.0064 7.61134 57.926 8.18164 58.6223 8.09255ZM43.6904 183.911C44.114 183.802 43.7327 183.246 43.2063 183.377C42.7832 183.48 43.1636 184.046 43.6904 183.911ZM52.1312 112.73C52.1628 112.729 52.2161 112.526 52.0406 112.509C51.4751 112.453 51.5989 112.759 52.1312 112.73ZM42.7218 192.141C42.8607 190.895 45.351 190.317 45.0238 191.575C44.9661 191.808 44.259 191.047 44.0279 191.336C43.6068 191.879 45.1384 192.273 44.3107 192.811C44.1581 192.921 42.7073 192.216 42.7185 192.139C42.7196 192.14 42.7207 192.14 42.7218 192.141ZM50.1726 131.12C50.2008 131.116 50.2569 130.833 50.2304 130.823C49.5856 130.598 49.4721 131.171 50.1726 131.12ZM54.7954 100.822C54.8557 100.813 54.979 100.151 54.9271 100.123C53.8814 99.6659 53.6293 101.001 54.7954 100.822ZM49.9692 150.552C50.6083 150.918 50.653 151.307 49.7947 151.481C49.8664 151.176 49.9012 150.855 49.9692 150.552Z" fill="#9B54D7"/>
</svg>
