<svg xmlns="http://www.w3.org/2000/svg" viewBox="0 15.699999809265137 208.3000030517578 34.39999771118164" data-asc="0.9" width="208.3000030517578" height="34.39999771118164"><defs/><g fill="#fafafa"><g transform="translate(0, 0)"><path d="M28.50 31.05Q28.50 31.05 28.50 32.06Q28.50 33.08 28.50 34.66Q28.50 36.25 28.50 38.02Q28.50 39.80 28.50 41.39Q28.50 42.98 28.50 43.99Q28.50 45 28.50 45Q28.50 45 28.50 45Q28.50 45 28.50 45Q28.50 45 28.50 45Q28.50 45 28.50 45Q28.50 45 27.45 45Q26.40 45 24.74 45Q23.08 45 21.20 45Q19.32 45 17.66 45Q16 45 14.95 45Q13.90 45 13.90 45Q13.90 45 13.90 45Q13.90 45 13.90 45Q13.90 45 13.90 45Q13.90 45 13.90 45Q13.90 45 13.90 45Q13.90 44.50 13.90 43.99Q13.90 43.48 13.90 43Q13.90 43 14.81 43Q15.73 43 17.16 43Q18.60 43 20.20 43Q21.80 43 23.24 43Q24.68 43 25.59 43Q26.50 43 26.50 43Q26.50 43 26.50 43Q26.50 43 26.50 43Q26.50 43 26.50 43Q26.50 43 26.50 43Q26.50 43 26.50 43Q26.50 43 26.50 43Q26.50 43 26.50 43Q26.50 43 26.50 43Q26.50 43 26.50 43Q26.50 43 26.50 43Q26.50 43 26.50 43Q26.50 43 26.50 43Q26.50 43 26.50 43Q26.50 43 26.50 42.14Q26.50 41.27 26.50 39.91Q26.50 38.55 26.50 37.02Q26.50 35.50 26.50 34.14Q26.50 32.77 26.50 31.91Q26.50 31.05 26.50 31.05L28.50 31.05M0 31.05L2 31.05Q2 31.05 2 31.91Q2 32.77 2 34.14Q2 35.50 2 37.02Q2 38.55 2 39.91Q2 41.27 2 42.14Q2 43 2 43Q2 43 2 43Q2 43 2 43Q2 43 2 43Q2 43 2 43Q2 43 2 43Q2 43 2 43Q2 43 2 43Q2 43 2 43Q2 43 2 43Q2 43 2 43Q2 43 2 43Q2 43 2 43Q2 43 2 43Q2 43 2.91 43Q3.83 43 5.26 43Q6.70 43 8.30 43Q9.90 43 11.34 43Q12.78 43 13.69 43Q14.60 43 14.60 43Q14.60 43.48 14.60 43.99Q14.60 44.50 14.60 45Q14.60 45 14.60 45Q14.60 45 14.60 45Q14.60 45 14.60 45Q14.60 45 14.60 45Q14.60 45 14.60 45Q14.60 45 13.55 45Q12.50 45 10.84 45Q9.18 45 7.30 45Q5.42 45 3.76 45Q2.10 45 1.05 45Q0 45 0 45Q0 45 0 45Q0 45 0 45Q0 45 0 45Q0 45 0 45Q0 45 0 43.99Q0 42.98 0 41.39Q0 39.80 0 38.02Q0 36.25 0 34.66Q0 33.08 0 32.06Q0 31.05 0 31.05M0 30.20L0 15.70Q0 15.70 0.79 15.70Q1.58 15.70 2.74 15.70Q3.90 15.70 5.08 15.70Q6.25 15.70 7.08 15.70Q7.90 15.70 7.95 15.70Q7.95 15.70 7.95 15.70Q7.95 15.70 7.95 15.70Q7.95 15.70 7.95 15.70Q7.95 15.70 7.95 15.70Q7.95 15.70 7.95 15.70Q7.95 15.70 7.95 15.70Q7.95 15.70 7.95 15.70Q7.95 15.70 7.95 15.70Q7.95 15.70 7.95 15.70Q7.95 15.70 7.95 15.70Q8 15.70 8.79 15.70Q9.58 15.70 10.70 15.70Q11.83 15.70 12.94 15.70Q14.05 15.70 14.80 15.70Q15.55 15.70 15.55 15.70L15.55 20.80Q15.70 20.80 16.18 20.80Q16.65 20.80 17.34 20.80Q18.03 20.80 18.80 20.80Q19.78 20.80 20.70 20.80Q21.63 20.80 22.71 20.80Q23.80 20.80 25.20 20.80Q26.60 20.80 28.50 20.80L28.50 20.80L28.50 30.65L26.50 30.65L26.50 26.80Q26.50 26.80 26.50 26.80Q26.50 26.80 26.50 26.80Q26.50 26.72 26.13 26.30Q25.75 25.88 25.18 25.29Q24.60 24.70 24.01 24.13Q23.43 23.55 22.99 23.17Q22.55 22.80 22.45 22.80Q22.45 22.80 22.45 22.80Q22.45 22.80 22.45 22.80Q22.45 22.80 22.45 22.80Q21.95 22.80 20.91 22.80Q19.88 22.80 18.61 22.80Q17.35 22.80 16.20 22.80Q15.05 22.80 14.30 22.80Q13.55 22.80 13.55 22.80Q13.55 22.80 13.55 22.80Q13.55 22.80 13.55 22.80Q13.55 22.80 13.55 22.80Q13.55 22.80 13.55 22.80L13.55 17.70Q13.55 17.70 13.55 17.70Q13.55 17.70 13.55 17.70Q13.55 17.70 12.70 17.70Q11.85 17.70 10.75 17.70Q9.65 17.70 8.80 17.70Q7.95 17.70 7.95 17.70Q7.95 17.70 7.05 17.70Q6.15 17.70 4.97 17.70Q3.80 17.70 2.90 17.70Q2 17.70 2 17.70Q2 17.70 2 17.70Q2 17.70 2 17.70L2 30.20L0 30.20M0 27.10L2 27.10Q2 28.47 2 29.30Q2 30.13 2 30.89Q2 31.65 2 32.85Q2 32.85 2 32.85Q2 32.85 2 32.85Q2 32.85 2 32.85Q2 32.85 2 32.85Q2 34.10 2 34.75Q2 35.40 2 35.84Q2 36.27 2 36.86Q2 37.45 2 38.60L0 38.60L0 27.10M28.50 38.60L26.50 38.60Q26.50 37.23 26.50 36.40Q26.50 35.58 26.50 34.81Q26.50 34.05 26.50 32.85Q26.50 32.85 26.50 32.85Q26.50 32.85 26.50 32.85Q26.50 32.85 26.50 32.85Q26.50 32.85 26.50 32.85Q26.50 31.60 26.50 30.95Q26.50 30.30 26.50 29.86Q26.50 29.42 26.50 28.84Q26.50 28.25 26.50 27.10L28.50 27.10L28.50 38.60M13.45 43.35Q13.38 43.35 13.34 43.35Q13.30 43.35 13.28 43.33Q13.25 43.30 13.25 43.26Q13.25 43.23 13.25 43.15Q13.25 43.15 13.25 43.15Q13.25 43.15 13.25 43.15Q13.25 43.15 13.25 43.15Q13.25 43.15 13.25 43.15Q13.25 43.15 13.25 43.15Q13.25 43.15 13.25 42.38Q13.25 41.60 13.25 40.39Q13.25 39.17 13.25 37.80Q13.25 36.42 13.25 35.21Q13.25 34 13.25 33.23Q13.25 32.45 13.25 32.45Q13.25 32.35 13.26 32.31Q13.28 32.27 13.31 32.26Q13.35 32.25 13.45 32.25Q13.45 32.25 13.85 32.25Q14.25 32.25 14.65 32.25Q15.05 32.25 15.05 32.25Q15.15 32.25 15.19 32.26Q15.23 32.27 15.24 32.31Q15.25 32.35 15.25 32.45Q15.25 32.45 15.25 33.23Q15.25 34 15.25 35.21Q15.25 36.42 15.25 37.80Q15.25 39.17 15.25 40.39Q15.25 41.60 15.25 42.38Q15.25 43.15 15.25 43.15Q15.25 43.15 15.25 43.15Q15.25 43.15 15.25 43.15Q15.25 43.15 15.25 43.15Q15.25 43.15 15.25 43.15Q15.25 43.15 15.25 43.15Q15.25 43.23 15.25 43.26Q15.25 43.30 15.23 43.33Q15.20 43.35 15.16 43.35Q15.13 43.35 15.05 43.35Q15.05 43.35 14.65 43.35Q14.25 43.35 13.85 43.35Q13.45 43.35 13.45 43.35ZM55 38.60L53 38.60Q53 37.23 53 36.40Q53 35.58 53 34.81Q53 34.05 53 32.85Q53 32.85 53 32.85Q53 32.85 53 32.85Q53 32.85 53 32.85Q53 32.85 53 32.85Q53 31.60 53 30.95Q53 30.30 53 29.86Q53 29.42 53 28.84Q53 28.25 53 27.10L55 27.10L55 38.60M55 31.05Q55 31.05 55 32.06Q55 33.08 55 34.66Q55 36.25 55 38.02Q55 39.80 55 41.39Q55 42.98 55 43.99Q55 45 55 45Q55 45 55 45Q55 45 55 45Q55 45 55 45Q55 45 55 45Q55 45 53.99 45Q52.98 45 51.38 45Q49.78 45 47.96 45Q46.15 45 44.49 45Q42.83 45 41.70 45Q40.58 45 40.40 45Q40.40 45 40.40 45Q40.40 45 40.40 45Q40.40 45 40.40 45Q40.40 45 40.40 45Q40.40 45 40.40 45Q40.40 44.50 40.40 43.99Q40.40 43.48 40.40 43Q40.40 43 41.26 43Q42.13 43 43.40 43Q44.67 43 45.95 43Q47.23 43 48.09 43Q48.95 43 48.95 43Q48.95 43 48.95 43Q48.95 43 48.95 43Q48.95 43 48.95 43Q49.03 43 49.45 42.63Q49.88 42.25 50.48 41.67Q51.08 41.10 51.65 40.51Q52.23 39.92 52.61 39.50Q53 39.08 53 39L53 31.05L55 31.05M55 34.75L53 34.75L53 26.80Q53 26.72 52.61 26.30Q52.23 25.88 51.65 25.29Q51.08 24.70 50.48 24.13Q49.88 23.55 49.45 23.17Q49.03 22.80 48.95 22.80Q48.95 22.80 48.95 22.80Q48.95 22.80 48.95 22.80Q48.95 22.80 48.95 22.80Q48.95 22.80 48.09 22.80Q47.23 22.80 45.95 22.80Q44.67 22.80 43.40 22.80Q42.13 22.80 41.26 22.80Q40.40 22.80 40.40 22.80Q40.40 22.30 40.40 21.79Q40.40 21.27 40.40 20.80Q40.40 20.80 40.40 20.80Q40.40 20.80 40.40 20.80Q40.40 20.80 40.40 20.80Q40.40 20.80 40.40 20.80Q40.40 20.80 40.40 20.80Q40.58 20.80 41.70 20.80Q42.83 20.80 44.49 20.80Q46.15 20.80 47.96 20.80Q49.78 20.80 51.38 20.80Q52.98 20.80 53.99 20.80Q55 20.80 55 20.80Q55 20.80 55 20.80Q55 20.80 55 20.80Q55 20.80 55 20.80Q55 20.80 55 20.80Q55 20.80 55 21.81Q55 22.82 55 24.41Q55 26 55 27.77Q55 29.55 55 31.14Q55 32.73 55 33.74Q55 34.75 55 34.75M39.75 35.95Q39.75 35.95 39.75 35.01Q39.75 34.08 39.75 32.85Q39.75 31.63 39.75 30.69Q39.75 29.75 39.75 29.75Q39.75 29.75 39.75 29.75Q39.75 29.75 39.75 29.75Q39.75 29.60 39.77 29.57Q39.80 29.55 39.95 29.55Q40.23 29.55 40.49 29.55Q40.75 29.55 41.01 29.55Q41.27 29.55 41.55 29.55Q41.70 29.55 41.73 29.57Q41.75 29.60 41.75 29.75Q41.75 29.75 41.75 29.75Q41.75 29.75 41.75 29.75Q41.75 29.75 41.75 30.69Q41.75 31.63 41.75 32.85Q41.75 34.08 41.75 35.01Q41.75 35.95 41.75 35.95Q41.75 35.95 41.75 35.95Q41.75 35.95 41.75 35.95Q41.75 35.95 41.75 35.95Q41.75 35.95 41.75 35.95Q41.75 35.95 41.75 35.95Q41.75 35.95 41.75 35.95Q41.75 35.95 41.75 35.95Q41.75 36.10 41.73 36.13Q41.70 36.15 41.55 36.15Q41.15 36.15 40.76 36.15Q40.38 36.15 39.95 36.15Q39.80 36.15 39.77 36.13Q39.75 36.10 39.75 35.95Q39.75 35.95 39.75 35.95Q39.75 35.95 39.75 35.95Q39.75 35.95 39.75 35.95Q39.75 35.95 39.75 35.95Q39.75 35.95 39.75 35.95Q39.75 35.95 39.75 35.95Q39.75 35.95 39.75 35.95M26.50 38.60L26.50 27.10L28.50 27.10Q28.50 28.25 28.50 28.84Q28.50 29.42 28.50 29.86Q28.50 30.30 28.50 30.95Q28.50 31.60 28.50 32.85Q28.50 32.85 28.50 32.85Q28.50 32.85 28.50 32.85Q28.50 32.85 28.50 32.85Q28.50 32.85 28.50 32.85Q28.50 34.05 28.50 34.81Q28.50 35.58 28.50 36.40Q28.50 37.23 28.50 38.60L26.50 38.60M26.50 31.05L28.50 31.05L28.50 39Q28.50 39.08 28.89 39.50Q29.27 39.92 29.85 40.51Q30.43 41.10 31.02 41.67Q31.63 42.25 32.05 42.63Q32.48 43 32.55 43Q32.55 43 32.55 43Q32.55 43 32.55 43Q32.55 43 32.55 43Q32.55 43 33.41 43Q34.27 43 35.55 43Q36.83 43 38.10 43Q39.38 43 40.24 43Q41.10 43 41.10 43Q41.10 43.48 41.10 43.99Q41.10 44.50 41.10 45Q41.10 45 41.10 45Q41.10 45 41.10 45Q41.10 45 41.10 45Q41.10 45 41.10 45Q41.10 45 41.10 45Q40.92 45 39.80 45Q38.67 45 37.01 45Q35.35 45 33.54 45Q31.73 45 30.13 45Q28.52 45 27.51 45Q26.50 45 26.50 45Q26.50 45 26.50 45Q26.50 45 26.50 45Q26.50 45 26.50 45Q26.50 45 26.50 45Q26.50 45 26.50 43.99Q26.50 42.98 26.50 41.39Q26.50 39.80 26.50 38.02Q26.50 36.25 26.50 34.66Q26.50 33.08 26.50 32.06Q26.50 31.05 26.50 31.05M26.50 34.75Q26.50 34.75 26.50 33.74Q26.50 32.73 26.50 31.14Q26.50 29.55 26.50 27.77Q26.50 26 26.50 24.41Q26.50 22.82 26.50 21.81Q26.50 20.80 26.50 20.80Q26.50 20.80 26.50 20.80Q26.50 20.80 26.50 20.80Q26.50 20.80 26.50 20.80Q26.50 20.80 26.50 20.80Q26.50 20.80 27.51 20.80Q28.52 20.80 30.13 20.80Q31.73 20.80 33.54 20.80Q35.35 20.80 37.01 20.80Q38.67 20.80 39.80 20.80Q40.92 20.80 41.10 20.80Q41.10 20.80 41.10 20.80Q41.10 20.80 41.10 20.80Q41.10 20.80 41.10 20.80Q41.10 20.80 41.10 20.80Q41.10 20.80 41.10 20.80Q41.10 21.27 41.10 21.79Q41.10 22.30 41.10 22.80Q41.10 22.80 40.24 22.80Q39.38 22.80 38.10 22.80Q36.83 22.80 35.55 22.80Q34.27 22.80 33.41 22.80Q32.55 22.80 32.55 22.80Q32.55 22.80 32.55 22.80Q32.55 22.80 32.55 22.80Q32.55 22.80 32.55 22.80Q32.48 22.80 32.05 23.17Q31.63 23.55 31.02 24.13Q30.43 24.70 29.85 25.29Q29.27 25.88 28.89 26.30Q28.50 26.72 28.50 26.80L28.50 34.75L26.50 34.75ZM81.50 38.65L79.50 38.65Q79.50 37.27 79.50 36.45Q79.50 35.63 79.50 34.86Q79.50 34.10 79.50 32.90Q79.50 32.90 79.50 32.90Q79.50 32.90 79.50 32.90Q79.50 32.90 79.50 32.90Q79.50 32.90 79.50 32.90Q79.50 31.65 79.50 31Q79.50 30.35 79.50 29.91Q79.50 29.48 79.50 28.89Q79.50 28.30 79.50 27.15L81.50 27.15L81.50 38.65M81.50 34.75L79.50 34.75L79.50 26.80Q79.50 26.72 79.11 26.30Q78.72 25.88 78.15 25.29Q77.58 24.70 76.97 24.13Q76.38 23.55 75.95 23.17Q75.53 22.80 75.45 22.80Q75.45 22.80 75.45 22.80Q75.45 22.80 75.45 22.80Q75.45 22.80 75.45 22.80Q75.45 22.80 74.59 22.80Q73.72 22.80 72.45 22.80Q71.17 22.80 69.90 22.80Q68.63 22.80 67.76 22.80Q66.90 22.80 66.90 22.80Q66.90 22.30 66.90 21.79Q66.90 21.27 66.90 20.80Q66.90 20.80 66.90 20.80Q66.90 20.80 66.90 20.80Q66.90 20.80 66.90 20.80Q66.90 20.80 66.90 20.80Q66.90 20.80 66.90 20.80Q67.08 20.80 68.20 20.80Q69.33 20.80 70.99 20.80Q72.65 20.80 74.46 20.80Q76.28 20.80 77.88 20.80Q79.47 20.80 80.49 20.80Q81.50 20.80 81.50 20.80Q81.50 20.80 81.50 20.80Q81.50 20.80 81.50 20.80Q81.50 20.80 81.50 20.80Q81.50 20.80 81.50 20.80Q81.50 20.80 81.50 21.81Q81.50 22.82 81.50 24.41Q81.50 26 81.50 27.77Q81.50 29.55 81.50 31.14Q81.50 32.73 81.50 33.74Q81.50 34.75 81.50 34.75M53 35.60L55 35.60L55 48.10Q55 48.10 55 48.10Q55 48.10 55 48.10Q55 48.10 55.90 48.10Q56.80 48.10 57.98 48.10Q59.15 48.10 60.05 48.10Q60.95 48.10 60.95 48.10Q60.95 48.10 61.80 48.10Q62.65 48.10 63.75 48.10Q64.85 48.10 65.70 48.10Q66.55 48.10 66.55 48.10Q66.55 48.10 66.55 48.10Q66.55 48.10 66.55 48.10L66.55 43Q66.55 43 66.55 43Q66.55 43 66.55 43Q66.55 43 66.55 43Q66.55 43 66.55 43Q66.55 43 67.30 43Q68.05 43 69.20 43Q70.35 43 71.61 43Q72.88 43 73.91 43Q74.95 43 75.45 43Q75.45 43 75.45 43Q75.45 43 75.45 43Q75.45 43 75.45 43Q75.55 43 75.99 42.63Q76.42 42.25 77.01 41.67Q77.60 41.10 78.17 40.51Q78.75 39.92 79.13 39.50Q79.50 39.08 79.50 39Q79.50 39 79.50 39Q79.50 39 79.50 39L79.50 35.15L81.50 35.15L81.50 45L81.50 45Q79.60 45 78.20 45Q76.80 45 75.71 45Q74.63 45 73.70 45Q72.78 45 71.80 45Q71.03 45 70.34 45Q69.65 45 69.17 45Q68.70 45 68.55 45L68.55 50.10Q68.55 50.10 67.80 50.10Q67.05 50.10 65.94 50.10Q64.83 50.10 63.70 50.10Q62.58 50.10 61.79 50.10Q61 50.10 60.95 50.10Q60.95 50.10 60.95 50.10Q60.95 50.10 60.95 50.10Q60.95 50.10 60.95 50.10Q60.95 50.10 60.95 50.10Q60.95 50.10 60.95 50.10Q60.95 50.10 60.95 50.10Q60.95 50.10 60.95 50.10Q60.95 50.10 60.95 50.10Q60.95 50.10 60.95 50.10Q60.95 50.10 60.95 50.10Q60.90 50.10 60.08 50.10Q59.25 50.10 58.08 50.10Q56.90 50.10 55.74 50.10Q54.58 50.10 53.79 50.10Q53 50.10 53 50.10L53 35.60M53 34.75Q53 34.75 53 33.74Q53 32.73 53 31.14Q53 29.55 53 27.77Q53 26 53 24.41Q53 22.82 53 21.81Q53 20.80 53 20.80Q53 20.80 53 20.80Q53 20.80 53 20.80Q53 20.80 53 20.80Q53 20.80 53 20.80Q53 20.80 54.05 20.80Q55.10 20.80 56.76 20.80Q58.42 20.80 60.30 20.80Q62.17 20.80 63.84 20.80Q65.50 20.80 66.55 20.80Q67.60 20.80 67.60 20.80Q67.60 20.80 67.60 20.80Q67.60 20.80 67.60 20.80Q67.60 20.80 67.60 20.80Q67.60 20.80 67.60 20.80Q67.60 20.80 67.60 20.80Q67.60 21.27 67.60 21.79Q67.60 22.30 67.60 22.80Q67.60 22.80 66.69 22.80Q65.78 22.80 64.34 22.80Q62.90 22.80 61.30 22.80Q59.70 22.80 58.26 22.80Q56.83 22.80 55.91 22.80Q55 22.80 55 22.80Q55 22.80 55 22.80Q55 22.80 55 22.80Q55 22.80 55 22.80Q55 22.80 55 22.80Q55 22.80 55 22.80Q55 22.80 55 22.80Q55 22.80 55 22.80Q55 22.80 55 22.80Q55 22.80 55 22.80Q55 22.80 55 22.80Q55 22.80 55 22.80Q55 22.80 55 22.80Q55 22.80 55 22.80Q55 22.80 55 23.66Q55 24.52 55 25.89Q55 27.25 55 28.77Q55 30.30 55 31.66Q55 33.02 55 33.89Q55 34.75 55 34.75L53 34.75M66.25 36Q66.25 36 66.25 35.06Q66.25 34.13 66.25 32.90Q66.25 31.67 66.25 30.74Q66.25 29.80 66.25 29.80Q66.25 29.80 66.25 29.80Q66.25 29.80 66.25 29.80Q66.25 29.65 66.28 29.63Q66.30 29.60 66.45 29.60Q66.72 29.60 66.99 29.60Q67.25 29.60 67.51 29.60Q67.78 29.60 68.05 29.60Q68.20 29.60 68.22 29.63Q68.25 29.65 68.25 29.80Q68.25 29.80 68.25 29.80Q68.25 29.80 68.25 29.80Q68.25 29.80 68.25 30.74Q68.25 31.67 68.25 32.90Q68.25 34.13 68.25 35.06Q68.25 36 68.25 36Q68.25 36 68.25 36Q68.25 36 68.25 36Q68.25 36 68.25 36Q68.25 36 68.25 36Q68.25 36 68.25 36Q68.25 36 68.25 36Q68.25 36 68.25 36Q68.25 36.15 68.22 36.17Q68.20 36.20 68.05 36.20Q67.65 36.20 67.26 36.20Q66.88 36.20 66.45 36.20Q66.30 36.20 66.28 36.17Q66.25 36.15 66.25 36Q66.25 36 66.25 36Q66.25 36 66.25 36Q66.25 36 66.25 36Q66.25 36 66.25 36Q66.25 36 66.25 36Q66.25 36 66.25 36Q66.25 36 66.25 36M53 27.15L55 27.15Q55 28.52 55 29.35Q55 30.17 55 30.94Q55 31.70 55 32.90Q55 32.90 55 32.90Q55 32.90 55 32.90Q55 32.90 55 32.90Q55 32.90 55 32.90Q55 34.15 55 34.80Q55 35.45 55 35.89Q55 36.33 55 36.91Q55 37.50 55 38.65L53 38.65L53 27.15ZM79.50 34.75Q79.50 33.60 79.50 32.15Q79.50 30.70 79.50 29.13Q79.50 27.55 79.50 26.07Q79.50 24.60 79.50 23.40Q79.50 22.20 79.50 21.50Q79.50 20.80 79.50 20.80Q79.50 20.80 79.50 20.80Q79.50 20.80 79.50 20.80Q79.50 20.80 79.50 20.80Q79.50 20.80 79.50 20.80Q79.50 20.80 80.49 20.80Q81.47 20.80 83.01 20.80Q84.55 20.80 86.30 20.80Q88.05 20.80 89.59 20.80Q91.13 20.80 92.11 20.80Q93.10 20.80 93.10 20.80Q93.10 20.80 93.10 20.80Q93.10 20.80 93.10 20.80Q93.10 20.80 93.10 20.80Q93.10 20.80 93.10 20.80Q93.10 20.80 93.10 20.80Q93.10 21.27 93.10 21.79Q93.10 22.30 93.10 22.80Q92.97 22.80 92.28 22.80Q91.58 22.80 90.56 22.80Q89.55 22.80 88.51 22.80Q87.47 22.80 86.66 22.80Q85.85 22.80 85.55 22.80Q85.55 22.80 85.55 22.80Q85.55 22.80 85.55 22.80Q85.55 22.80 85.55 22.80Q85.55 22.80 85.55 22.80Q85.47 22.80 85.05 23.17Q84.63 23.55 84.03 24.13Q83.42 24.70 82.85 25.29Q82.28 25.88 81.89 26.30Q81.50 26.72 81.50 26.80L81.50 34.75L79.50 34.75M79.50 27.15L81.50 27.15Q81.50 28.52 81.50 29.35Q81.50 30.17 81.50 30.94Q81.50 31.70 81.50 32.90Q81.50 32.90 81.50 32.90Q81.50 32.90 81.50 32.90Q81.50 32.90 81.50 32.90Q81.50 32.90 81.50 32.90Q81.50 34.15 81.50 34.80Q81.50 35.45 81.50 35.89Q81.50 36.33 81.50 36.91Q81.50 37.50 81.50 38.65L79.50 38.65L79.50 27.15M79.50 31.05L81.50 31.05L81.50 39Q81.50 39.08 81.89 39.50Q82.28 39.92 82.85 40.51Q83.42 41.10 84.03 41.67Q84.63 42.25 85.05 42.63Q85.47 43 85.55 43Q85.55 43 85.55 43Q85.55 43 85.55 43Q85.55 43 85.55 43Q85.55 43 85.55 43Q85.85 43 86.66 43Q87.47 43 88.51 43Q89.55 43 90.56 43Q91.58 43 92.28 43Q92.97 43 93.10 43Q93.10 43.48 93.10 43.99Q93.10 44.50 93.10 45Q93.10 45 93.10 45Q93.10 45 93.10 45Q93.10 45 93.10 45Q93.10 45 93.10 45Q93.10 45 93.10 45Q93.10 45 92.11 45Q91.13 45 89.59 45Q88.05 45 86.30 45Q84.55 45 83.01 45Q81.47 45 80.49 45Q79.50 45 79.50 45Q79.50 45 79.50 45Q79.50 45 79.50 45Q79.50 45 79.50 45Q79.50 45 79.50 45Q79.50 45 79.50 44.30Q79.50 43.60 79.50 42.40Q79.50 41.20 79.50 39.73Q79.50 38.25 79.50 36.69Q79.50 35.13 79.50 33.65Q79.50 32.17 79.50 31.05M106.10 34.75L104.10 34.75L104.10 26.80Q104.10 26.72 103.71 26.30Q103.33 25.88 102.75 25.29Q102.17 24.70 101.58 24.13Q100.97 23.55 100.55 23.17Q100.13 22.80 100.05 22.80Q100.05 22.80 100.05 22.80Q100.05 22.80 100.05 22.80Q100.05 22.80 100.05 22.80Q100.05 22.80 100.05 22.80Q99.75 22.80 98.94 22.80Q98.13 22.80 97.09 22.80Q96.05 22.80 95.04 22.80Q94.03 22.80 93.33 22.80Q92.63 22.80 92.50 22.80Q92.50 22.30 92.50 21.79Q92.50 21.27 92.50 20.80Q92.50 20.80 92.50 20.80Q92.50 20.80 92.50 20.80Q92.50 20.80 92.50 20.80Q92.50 20.80 92.50 20.80Q92.50 20.80 92.50 20.80Q92.50 20.80 93.49 20.80Q94.47 20.80 96.01 20.80Q97.55 20.80 99.30 20.80Q101.05 20.80 102.59 20.80Q104.13 20.80 105.11 20.80Q106.10 20.80 106.10 20.80Q106.10 20.80 106.10 20.80Q106.10 20.80 106.10 20.80Q106.10 20.80 106.10 20.80Q106.10 20.80 106.10 20.80Q106.10 20.80 106.10 21.50Q106.10 22.20 106.10 23.40Q106.10 24.60 106.10 26.07Q106.10 27.55 106.10 29.13Q106.10 30.70 106.10 32.15Q106.10 33.60 106.10 34.75M106.10 32.55Q106.10 32.55 106.10 33.45Q106.10 34.35 106.10 35.76Q106.10 37.17 106.10 38.77Q106.10 40.38 106.10 41.79Q106.10 43.20 106.10 44.10Q106.10 45 106.10 45Q106.10 45 106.10 45Q106.10 45 106.10 45Q106.10 45 106.10 45Q106.10 45 106.10 45Q106.10 45 105.11 45Q104.13 45 102.59 45Q101.05 45 99.30 45Q97.55 45 96.01 45Q94.47 45 93.49 45Q92.50 45 92.50 45Q92.50 45 92.50 45Q92.50 45 92.50 45Q92.50 45 92.50 45Q92.50 45 92.50 45Q92.50 45 92.50 45Q92.50 44.50 92.50 43.99Q92.50 43.48 92.50 43Q92.50 43 93.67 43Q94.85 43 96.58 43Q98.30 43 100.03 43Q101.75 43 102.92 43Q104.10 43 104.10 43Q104.10 43 104.10 43Q104.10 43 104.10 43Q104.10 43 104.10 43Q104.10 43 104.10 43Q104.10 43 104.10 43Q104.10 43 104.10 43Q104.10 43 104.10 43Q104.10 43 104.10 43Q104.10 43 104.10 43Q104.10 43 104.10 43Q104.10 43 104.10 43Q104.10 43 104.10 41.95Q104.10 40.90 104.10 39.34Q104.10 37.77 104.10 36.21Q104.10 34.65 104.10 33.60Q104.10 32.55 104.10 32.55L106.10 32.55M96 28.95Q96 28.95 96 28.95Q96 28.95 96 28.95Q96 28.95 96 28.95Q96 28.95 96 28.95Q96 28.95 96 28.95Q96 28.95 96 28.95Q96 28.95 96 28.95Q96.15 28.95 96.17 28.97Q96.20 29 96.20 29.15Q96.20 29.42 96.20 29.69Q96.20 29.95 96.20 30.21Q96.20 30.48 96.20 30.75Q96.20 30.90 96.17 30.92Q96.15 30.95 96 30.95Q96 30.95 96 30.95Q96 30.95 96 30.95Q96 30.95 96 30.95Q96 30.95 96 30.95Q96 30.95 96 30.95Q96 30.95 96 30.95Q96 30.95 96 30.95Q96 30.95 95.06 30.95Q94.13 30.95 92.90 30.95Q91.67 30.95 90.74 30.95Q89.80 30.95 89.80 30.95Q89.80 30.95 89.80 30.95Q89.80 30.95 89.80 30.95Q89.65 30.95 89.63 30.92Q89.60 30.90 89.60 30.75Q89.60 30.48 89.60 30.21Q89.60 29.95 89.60 29.69Q89.60 29.42 89.60 29.15Q89.60 29 89.63 28.97Q89.65 28.95 89.80 28.95Q89.80 28.95 89.80 28.95Q89.80 28.95 89.80 28.95Q89.80 28.95 90.74 28.95Q91.67 28.95 92.90 28.95Q94.13 28.95 95.06 28.95Q96 28.95 96 28.95M105.05 36.85L104.10 36.85Q104.10 36.85 104.10 36.67Q104.10 36.50 104.10 36.33Q104.10 36.15 104.10 36.15Q104.10 36.15 103.09 36.30Q102.08 36.45 100.59 36.66Q99.10 36.88 97.61 37.09Q96.13 37.30 95.11 37.45Q94.10 37.60 94.10 37.60Q94.10 37.60 94.09 37.50Q94.08 37.40 94.04 37.19Q94 36.98 93.95 36.65Q93.90 36.33 93.86 36.10Q93.83 35.88 93.81 35.76Q93.80 35.65 93.80 35.65Q93.80 35.65 94.84 35.50Q95.88 35.35 97.41 35.13Q98.95 34.90 100.49 34.67Q102.03 34.45 103.06 34.30Q104.10 34.15 104.10 34.15Q104.10 34.15 104.10 33.91Q104.10 33.67 104.10 33.44Q104.10 33.20 104.10 33.20L105.05 33.20L105.05 36.85ZM130.70 35.60L128.70 35.60Q128.70 35.60 128.70 34.81Q128.70 34.02 128.70 32.98Q128.70 31.92 128.70 31.14Q128.70 30.35 128.70 30.35Q128.70 30.35 128.70 30.35Q128.70 30.35 128.70 30.35Q128.70 30.35 128.70 30.35Q128.70 30.35 128.70 30.35Q128.70 30.35 128.70 29.56Q128.70 28.77 128.70 27.72Q128.70 26.68 128.70 25.89Q128.70 25.10 128.70 25.10L130.70 25.10L130.70 35.60M130.70 31.05Q130.70 32.17 130.70 33.65Q130.70 35.13 130.70 36.69Q130.70 38.25 130.70 39.73Q130.70 41.20 130.70 42.40Q130.70 43.60 130.70 44.30Q130.70 45 130.70 45Q130.70 45 130.70 45Q130.70 45 130.70 45Q130.70 45 130.70 45Q130.70 45 130.70 45Q130.70 45 129.71 45Q128.72 45 127.19 45Q125.65 45 123.90 45Q122.15 45 120.61 45Q119.07 45 118.09 45Q117.10 45 117.10 45Q117.10 45 117.10 45Q117.10 45 117.10 45Q117.10 45 117.10 45Q117.10 45 117.10 45Q117.10 45 117.10 45Q117.10 44.50 117.10 43.99Q117.10 43.48 117.10 43Q117.22 43 117.92 43Q118.63 43 119.64 43Q120.65 43 121.69 43Q122.72 43 123.54 43Q124.35 43 124.65 43Q124.65 43 124.65 43Q124.65 43 124.65 43Q124.65 43 124.65 43Q124.65 43 124.65 43Q124.72 43 125.15 42.63Q125.57 42.25 126.17 41.67Q126.77 41.10 127.35 40.51Q127.92 39.92 128.31 39.50Q128.70 39.08 128.70 39L128.70 31.05L130.70 31.05M104.10 32.55L106.10 32.55Q106.10 32.55 106.10 33.60Q106.10 34.65 106.10 36.21Q106.10 37.77 106.10 39.34Q106.10 40.90 106.10 41.95Q106.10 43 106.10 43Q106.10 43 106.10 43Q106.10 43 106.10 43Q106.10 43 106.10 43Q106.10 43 106.10 43Q106.10 43 106.10 43Q106.10 43 106.10 43Q106.10 43 106.10 43Q106.10 43 106.10 43Q106.10 43 106.10 43Q106.10 43 106.10 43Q106.10 43 106.10 43Q106.10 43 107.27 43Q108.45 43 110.17 43Q111.90 43 113.63 43Q115.35 43 116.52 43Q117.70 43 117.70 43Q117.70 43.48 117.70 43.99Q117.70 44.50 117.70 45Q117.70 45 117.70 45Q117.70 45 117.70 45Q117.70 45 117.70 45Q117.70 45 117.70 45Q117.70 45 117.70 45Q117.70 45 116.71 45Q115.72 45 114.19 45Q112.65 45 110.90 45Q109.15 45 107.61 45Q106.07 45 105.09 45Q104.10 45 104.10 45Q104.10 45 104.10 45Q104.10 45 104.10 45Q104.10 45 104.10 45Q104.10 45 104.10 45Q104.10 45 104.10 44.10Q104.10 43.20 104.10 41.79Q104.10 40.38 104.10 38.77Q104.10 37.17 104.10 35.76Q104.10 34.35 104.10 33.45Q104.10 32.55 104.10 32.55M104.10 17.70L106.10 17.70L106.10 27.30Q106.10 27.30 106.10 27.30Q106.10 27.30 106.10 27.30Q106.10 27.30 106.10 27.30Q106.10 27.30 106.44 27.30Q106.77 27.30 107.38 27.30Q107.97 27.30 108.75 27.30Q109.52 27.30 110.41 27.30Q111.30 27.30 112.20 27.30Q113.67 27.30 115 27.30Q116.32 27.30 117.16 27.30Q118 27.30 118 27.30Q118 27.30 118 27.85Q118 28.40 118 29.27Q118 30.15 118 31.13Q118 32.10 118 32.98Q118 33.85 118 34.40Q118 34.95 118 34.95Q118 34.95 117.79 34.95Q117.57 34.95 117.36 34.95Q117.15 34.95 117.15 34.95Q117.15 34.95 116.90 34.95Q116.65 34.95 116.40 34.95Q116.15 34.95 116.15 34.95Q116.15 34.95 116.15 34.95Q116.15 34.95 116.15 34.95Q116.15 34.95 116.15 34.95Q116.15 34.95 116.15 34.95Q116.15 34.95 116.15 34.95Q116.15 34.95 116.15 34.95Q116.15 34.95 116.15 34.11Q116.15 33.27 116.15 32.17Q116.15 31.07 116.15 30.24Q116.15 29.40 116.15 29.40Q116.15 29.40 115.14 29.40Q114.13 29.40 112.63 29.40Q111.13 29.40 109.63 29.40Q108.13 29.40 107.11 29.40Q106.10 29.40 106.10 29.40Q106.10 29.40 106.10 29.40Q106.10 29.40 106.10 29.40Q106.10 29.40 106.10 29.40Q106.10 29.40 106.10 29.40L106.10 35.70L104.10 35.70L104.10 17.70M130.70 28.15L128.70 28.15Q128.70 28.15 128.70 27.10Q128.70 26.05 128.70 24.49Q128.70 22.92 128.70 21.36Q128.70 19.80 128.70 18.75Q128.70 17.70 128.70 17.70Q128.70 17.70 128.70 17.70Q128.70 17.70 128.70 17.70Q128.70 17.70 128.70 17.70Q128.70 17.70 128.70 17.70Q128.70 17.70 128.70 17.70Q128.70 17.70 128.70 17.70Q128.70 17.70 128.70 17.70Q128.70 17.70 128.70 17.70Q128.70 17.70 128.70 17.70Q128.70 17.70 128.70 17.70Q128.70 17.70 128.70 17.70Q128.70 17.70 127.52 17.70Q126.35 17.70 124.63 17.70Q122.90 17.70 121.17 17.70Q119.45 17.70 118.27 17.70Q117.10 17.70 117.10 17.70Q117.10 17.20 117.10 16.69Q117.10 16.17 117.10 15.70Q117.10 15.70 117.10 15.70Q117.10 15.70 117.10 15.70Q117.10 15.70 117.10 15.70Q117.10 15.70 117.10 15.70Q117.10 15.70 117.10 15.70Q117.10 15.70 118.09 15.70Q119.07 15.70 120.61 15.70Q122.15 15.70 123.90 15.70Q125.65 15.70 127.19 15.70Q128.72 15.70 129.71 15.70Q130.70 15.70 130.70 15.70Q130.70 15.70 130.70 15.70Q130.70 15.70 130.70 15.70Q130.70 15.70 130.70 15.70Q130.70 15.70 130.70 15.70Q130.70 15.70 130.70 16.60Q130.70 17.50 130.70 18.91Q130.70 20.32 130.70 21.92Q130.70 23.52 130.70 24.94Q130.70 26.35 130.70 27.25Q130.70 28.15 130.70 28.15M104.10 28.15Q104.10 28.15 104.10 27.25Q104.10 26.35 104.10 24.94Q104.10 23.52 104.10 21.92Q104.10 20.32 104.10 18.91Q104.10 17.50 104.10 16.60Q104.10 15.70 104.10 15.70Q104.10 15.70 104.10 15.70Q104.10 15.70 104.10 15.70Q104.10 15.70 104.10 15.70Q104.10 15.70 104.10 15.70Q104.10 15.70 105.09 15.70Q106.07 15.70 107.61 15.70Q109.15 15.70 110.90 15.70Q112.65 15.70 114.19 15.70Q115.72 15.70 116.71 15.70Q117.70 15.70 117.70 15.70Q117.70 15.70 117.70 15.70Q117.70 15.70 117.70 15.70Q117.70 15.70 117.70 15.70Q117.70 15.70 117.70 15.70Q117.70 15.70 117.70 15.70Q117.70 16.17 117.70 16.69Q117.70 17.20 117.70 17.70Q117.70 17.70 116.52 17.70Q115.35 17.70 113.63 17.70Q111.90 17.70 110.17 17.70Q108.45 17.70 107.27 17.70Q106.10 17.70 106.10 17.70Q106.10 17.70 106.10 17.70Q106.10 17.70 106.10 17.70Q106.10 17.70 106.10 17.70Q106.10 17.70 106.10 17.70Q106.10 17.70 106.10 17.70Q106.10 17.70 106.10 17.70Q106.10 17.70 106.10 17.70Q106.10 17.70 106.10 17.70Q106.10 17.70 106.10 17.70Q106.10 17.70 106.10 17.70Q106.10 17.70 106.10 17.70Q106.10 17.70 106.10 18.75Q106.10 19.80 106.10 21.36Q106.10 22.92 106.10 24.49Q106.10 26.05 106.10 27.10Q106.10 28.15 106.10 28.15L104.10 28.15ZM157.20 38.60L155.20 38.60Q155.20 37.23 155.20 36.40Q155.20 35.58 155.20 34.81Q155.20 34.05 155.20 32.85Q155.20 32.85 155.20 32.85Q155.20 32.85 155.20 32.85Q155.20 32.85 155.20 32.85Q155.20 32.85 155.20 32.85Q155.20 31.60 155.20 30.95Q155.20 30.30 155.20 29.86Q155.20 29.42 155.20 28.84Q155.20 28.25 155.20 27.10L157.20 27.10L157.20 38.60M157.20 31.05Q157.20 31.05 157.20 32.06Q157.20 33.08 157.20 34.66Q157.20 36.25 157.20 38.02Q157.20 39.80 157.20 41.39Q157.20 42.98 157.20 43.99Q157.20 45 157.20 45Q157.20 45 157.20 45Q157.20 45 157.20 45Q157.20 45 157.20 45Q157.20 45 157.20 45Q157.20 45 156.19 45Q155.17 45 153.57 45Q151.97 45 150.16 45Q148.35 45 146.69 45Q145.02 45 143.90 45Q142.77 45 142.60 45Q142.60 45 142.60 45Q142.60 45 142.60 45Q142.60 45 142.60 45Q142.60 45 142.60 45Q142.60 45 142.60 45Q142.60 44.50 142.60 43.99Q142.60 43.48 142.60 43Q142.60 43 143.46 43Q144.32 43 145.60 43Q146.88 43 148.15 43Q149.42 43 150.29 43Q151.15 43 151.15 43Q151.15 43 151.15 43Q151.15 43 151.15 43Q151.15 43 151.15 43Q151.22 43 151.65 42.63Q152.07 42.25 152.67 41.67Q153.27 41.10 153.85 40.51Q154.42 39.92 154.81 39.50Q155.20 39.08 155.20 39L155.20 31.05L157.20 31.05M157.20 34.75L155.20 34.75L155.20 26.80Q155.20 26.72 154.81 26.30Q154.42 25.88 153.85 25.29Q153.27 24.70 152.67 24.13Q152.07 23.55 151.65 23.17Q151.22 22.80 151.15 22.80Q151.15 22.80 151.15 22.80Q151.15 22.80 151.15 22.80Q151.15 22.80 151.15 22.80Q151.15 22.80 150.29 22.80Q149.42 22.80 148.15 22.80Q146.88 22.80 145.60 22.80Q144.32 22.80 143.46 22.80Q142.60 22.80 142.60 22.80Q142.60 22.30 142.60 21.79Q142.60 21.27 142.60 20.80Q142.60 20.80 142.60 20.80Q142.60 20.80 142.60 20.80Q142.60 20.80 142.60 20.80Q142.60 20.80 142.60 20.80Q142.60 20.80 142.60 20.80Q142.77 20.80 143.90 20.80Q145.02 20.80 146.69 20.80Q148.35 20.80 150.16 20.80Q151.97 20.80 153.57 20.80Q155.17 20.80 156.19 20.80Q157.20 20.80 157.20 20.80Q157.20 20.80 157.20 20.80Q157.20 20.80 157.20 20.80Q157.20 20.80 157.20 20.80Q157.20 20.80 157.20 20.80Q157.20 20.80 157.20 21.81Q157.20 22.82 157.20 24.41Q157.20 26 157.20 27.77Q157.20 29.55 157.20 31.14Q157.20 32.73 157.20 33.74Q157.20 34.75 157.20 34.75M141.95 35.95Q141.95 35.95 141.95 35.01Q141.95 34.08 141.95 32.85Q141.95 31.63 141.95 30.69Q141.95 29.75 141.95 29.75Q141.95 29.75 141.95 29.75Q141.95 29.75 141.95 29.75Q141.95 29.60 141.97 29.57Q142 29.55 142.15 29.55Q142.42 29.55 142.69 29.55Q142.95 29.55 143.21 29.55Q143.47 29.55 143.75 29.55Q143.90 29.55 143.92 29.57Q143.95 29.60 143.95 29.75Q143.95 29.75 143.95 29.75Q143.95 29.75 143.95 29.75Q143.95 29.75 143.95 30.69Q143.95 31.63 143.95 32.85Q143.95 34.08 143.95 35.01Q143.95 35.95 143.95 35.95Q143.95 35.95 143.95 35.95Q143.95 35.95 143.95 35.95Q143.95 35.95 143.95 35.95Q143.95 35.95 143.95 35.95Q143.95 35.95 143.95 35.95Q143.95 35.95 143.95 35.95Q143.95 35.95 143.95 35.95Q143.95 36.10 143.92 36.13Q143.90 36.15 143.75 36.15Q143.35 36.15 142.96 36.15Q142.57 36.15 142.15 36.15Q142 36.15 141.97 36.13Q141.95 36.10 141.95 35.95Q141.95 35.95 141.95 35.95Q141.95 35.95 141.95 35.95Q141.95 35.95 141.95 35.95Q141.95 35.95 141.95 35.95Q141.95 35.95 141.95 35.95Q141.95 35.95 141.95 35.95Q141.95 35.95 141.95 35.95M128.70 38.60L128.70 27.10L130.70 27.10Q130.70 28.25 130.70 28.84Q130.70 29.42 130.70 29.86Q130.70 30.30 130.70 30.95Q130.70 31.60 130.70 32.85Q130.70 32.85 130.70 32.85Q130.70 32.85 130.70 32.85Q130.70 32.85 130.70 32.85Q130.70 32.85 130.70 32.85Q130.70 34.05 130.70 34.81Q130.70 35.58 130.70 36.40Q130.70 37.23 130.70 38.60L128.70 38.60M128.70 31.05L130.70 31.05L130.70 39Q130.70 39.08 131.09 39.50Q131.47 39.92 132.05 40.51Q132.63 41.10 133.22 41.67Q133.82 42.25 134.25 42.63Q134.67 43 134.75 43Q134.75 43 134.75 43Q134.75 43 134.75 43Q134.75 43 134.75 43Q134.75 43 135.61 43Q136.47 43 137.75 43Q139.02 43 140.30 43Q141.57 43 142.44 43Q143.30 43 143.30 43Q143.30 43.48 143.30 43.99Q143.30 44.50 143.30 45Q143.30 45 143.30 45Q143.30 45 143.30 45Q143.30 45 143.30 45Q143.30 45 143.30 45Q143.30 45 143.30 45Q143.13 45 142 45Q140.88 45 139.21 45Q137.55 45 135.74 45Q133.92 45 132.32 45Q130.72 45 129.71 45Q128.70 45 128.70 45Q128.70 45 128.70 45Q128.70 45 128.70 45Q128.70 45 128.70 45Q128.70 45 128.70 45Q128.70 45 128.70 43.99Q128.70 42.98 128.70 41.39Q128.70 39.80 128.70 38.02Q128.70 36.25 128.70 34.66Q128.70 33.08 128.70 32.06Q128.70 31.05 128.70 31.05M128.70 34.75Q128.70 34.75 128.70 33.74Q128.70 32.73 128.70 31.14Q128.70 29.55 128.70 27.77Q128.70 26 128.70 24.41Q128.70 22.82 128.70 21.81Q128.70 20.80 128.70 20.80Q128.70 20.80 128.70 20.80Q128.70 20.80 128.70 20.80Q128.70 20.80 128.70 20.80Q128.70 20.80 128.70 20.80Q128.70 20.80 129.71 20.80Q130.72 20.80 132.32 20.80Q133.92 20.80 135.74 20.80Q137.55 20.80 139.21 20.80Q140.88 20.80 142 20.80Q143.13 20.80 143.30 20.80Q143.30 20.80 143.30 20.80Q143.30 20.80 143.30 20.80Q143.30 20.80 143.30 20.80Q143.30 20.80 143.30 20.80Q143.30 20.80 143.30 20.80Q143.30 21.27 143.30 21.79Q143.30 22.30 143.30 22.80Q143.30 22.80 142.44 22.80Q141.57 22.80 140.30 22.80Q139.02 22.80 137.75 22.80Q136.47 22.80 135.61 22.80Q134.75 22.80 134.75 22.80Q134.75 22.80 134.75 22.80Q134.75 22.80 134.75 22.80Q134.75 22.80 134.75 22.80Q134.67 22.80 134.25 23.17Q133.82 23.55 133.22 24.13Q132.63 24.70 132.05 25.29Q131.47 25.88 131.09 26.30Q130.70 26.72 130.70 26.80L130.70 34.75L128.70 34.75ZM183.70 27.10L183.70 38.60L181.70 38.60Q181.70 37.45 181.70 36.86Q181.70 36.27 181.70 35.84Q181.70 35.40 181.70 34.75Q181.70 34.10 181.70 32.85Q181.70 32.85 181.70 32.85Q181.70 32.85 181.70 32.85Q181.70 32.85 181.70 32.85Q181.70 32.85 181.70 32.85Q181.70 31.65 181.70 30.89Q181.70 30.13 181.70 29.30Q181.70 28.47 181.70 27.10L183.70 27.10M183.70 31.05Q183.70 31.05 183.70 32.06Q183.70 33.08 183.70 34.66Q183.70 36.25 183.70 38.02Q183.70 39.80 183.70 41.39Q183.70 42.98 183.70 43.99Q183.70 45 183.70 45Q183.70 45 183.70 45Q183.70 45 183.70 45Q183.70 45 183.70 45Q183.70 45 183.70 45Q183.70 45 182.69 45Q181.67 45 180.07 45Q178.47 45 176.66 45Q174.85 45 173.19 45Q171.52 45 170.40 45Q169.27 45 169.10 45Q169.10 45 169.10 45Q169.10 45 169.10 45Q169.10 45 169.10 45Q169.10 45 169.10 45Q169.10 45 169.10 45Q169.10 44.50 169.10 43.99Q169.10 43.48 169.10 43Q169.10 43 169.96 43Q170.82 43 172.10 43Q173.38 43 174.65 43Q175.92 43 176.79 43Q177.65 43 177.65 43Q177.65 43 177.65 43Q177.65 43 177.65 43Q177.65 43 177.65 43Q177.72 43 178.15 42.63Q178.57 42.25 179.17 41.67Q179.77 41.10 180.35 40.51Q180.92 39.92 181.31 39.50Q181.70 39.08 181.70 39L181.70 31.05L183.70 31.05M155.20 30.20L155.20 15.70Q155.20 15.70 155.99 15.70Q156.77 15.70 157.94 15.70Q159.10 15.70 160.27 15.70Q161.45 15.70 162.27 15.70Q163.10 15.70 163.15 15.70Q163.15 15.70 163.15 15.70Q163.15 15.70 163.15 15.70Q163.15 15.70 163.15 15.70Q163.15 15.70 163.15 15.70Q163.15 15.70 163.15 15.70Q163.15 15.70 163.15 15.70Q163.15 15.70 163.15 15.70Q163.15 15.70 163.15 15.70Q163.15 15.70 163.15 15.70Q163.15 15.70 163.15 15.70Q163.20 15.70 163.99 15.70Q164.77 15.70 165.90 15.70Q167.02 15.70 168.14 15.70Q169.25 15.70 170 15.70Q170.75 15.70 170.75 15.70L170.75 20.80Q170.90 20.80 171.38 20.80Q171.85 20.80 172.54 20.80Q173.22 20.80 174 20.80Q174.97 20.80 175.90 20.80Q176.82 20.80 177.91 20.80Q179 20.80 180.40 20.80Q181.80 20.80 183.70 20.80L183.70 20.80L183.70 30.65L181.70 30.65L181.70 26.80Q181.70 26.80 181.70 26.80Q181.70 26.80 181.70 26.80Q181.70 26.72 181.32 26.30Q180.95 25.88 180.38 25.29Q179.80 24.70 179.21 24.13Q178.63 23.55 178.19 23.17Q177.75 22.80 177.65 22.80Q177.65 22.80 177.65 22.80Q177.65 22.80 177.65 22.80Q177.65 22.80 177.65 22.80Q177.15 22.80 176.11 22.80Q175.07 22.80 173.81 22.80Q172.55 22.80 171.40 22.80Q170.25 22.80 169.50 22.80Q168.75 22.80 168.75 22.80Q168.75 22.80 168.75 22.80Q168.75 22.80 168.75 22.80Q168.75 22.80 168.75 22.80Q168.75 22.80 168.75 22.80L168.75 17.70Q168.75 17.70 168.75 17.70Q168.75 17.70 168.75 17.70Q168.75 17.70 167.90 17.70Q167.05 17.70 165.95 17.70Q164.85 17.70 164 17.70Q163.15 17.70 163.15 17.70Q163.15 17.70 162.25 17.70Q161.35 17.70 160.17 17.70Q159 17.70 158.10 17.70Q157.20 17.70 157.20 17.70Q157.20 17.70 157.20 17.70Q157.20 17.70 157.20 17.70L157.20 30.20L155.20 30.20M155.20 31.05L157.20 31.05Q157.20 31.05 157.20 31.91Q157.20 32.77 157.20 34.14Q157.20 35.50 157.20 37.02Q157.20 38.55 157.20 39.91Q157.20 41.27 157.20 42.14Q157.20 43 157.20 43Q157.20 43 157.20 43Q157.20 43 157.20 43Q157.20 43 157.20 43Q157.20 43 157.20 43Q157.20 43 157.20 43Q157.20 43 157.20 43Q157.20 43 157.20 43Q157.20 43 157.20 43Q157.20 43 157.20 43Q157.20 43 157.20 43Q157.20 43 157.20 43Q157.20 43 157.20 43Q157.20 43 157.20 43Q157.20 43 158.11 43Q159.02 43 160.46 43Q161.90 43 163.50 43Q165.10 43 166.54 43Q167.97 43 168.89 43Q169.80 43 169.80 43Q169.80 43.48 169.80 43.99Q169.80 44.50 169.80 45Q169.80 45 169.80 45Q169.80 45 169.80 45Q169.80 45 169.80 45Q169.80 45 169.80 45Q169.80 45 169.80 45Q169.80 45 168.75 45Q167.70 45 166.04 45Q164.38 45 162.50 45Q160.63 45 158.96 45Q157.30 45 156.25 45Q155.20 45 155.20 45Q155.20 45 155.20 45Q155.20 45 155.20 45Q155.20 45 155.20 45Q155.20 45 155.20 45Q155.20 45 155.20 43.99Q155.20 42.98 155.20 41.39Q155.20 39.80 155.20 38.02Q155.20 36.25 155.20 34.66Q155.20 33.08 155.20 32.06Q155.20 31.05 155.20 31.05M155.20 27.10L157.20 27.10Q157.20 28.47 157.20 29.30Q157.20 30.13 157.20 30.89Q157.20 31.65 157.20 32.85Q157.20 32.85 157.20 32.85Q157.20 32.85 157.20 32.85Q157.20 32.85 157.20 32.85Q157.20 32.85 157.20 32.85Q157.20 34.10 157.20 34.75Q157.20 35.40 157.20 35.84Q157.20 36.27 157.20 36.86Q157.20 37.45 157.20 38.60L155.20 38.60L155.20 27.10M168.45 35.95Q168.45 35.95 168.45 35.01Q168.45 34.08 168.45 32.85Q168.45 31.63 168.45 30.69Q168.45 29.75 168.45 29.75Q168.45 29.75 168.45 29.75Q168.45 29.75 168.45 29.75Q168.45 29.60 168.47 29.57Q168.50 29.55 168.65 29.55Q168.92 29.55 169.19 29.55Q169.45 29.55 169.71 29.55Q169.97 29.55 170.25 29.55Q170.40 29.55 170.42 29.57Q170.45 29.60 170.45 29.75Q170.45 29.75 170.45 29.75Q170.45 29.75 170.45 29.75Q170.45 29.75 170.45 30.69Q170.45 31.63 170.45 32.85Q170.45 34.08 170.45 35.01Q170.45 35.95 170.45 35.95Q170.45 35.95 170.45 35.95Q170.45 35.95 170.45 35.95Q170.45 35.95 170.45 35.95Q170.45 35.95 170.45 35.95Q170.45 35.95 170.45 35.95Q170.45 35.95 170.45 35.95Q170.45 35.95 170.45 35.95Q170.45 36.10 170.42 36.13Q170.40 36.15 170.25 36.15Q169.85 36.15 169.46 36.15Q169.07 36.15 168.65 36.15Q168.50 36.15 168.47 36.13Q168.45 36.10 168.45 35.95Q168.45 35.95 168.45 35.95Q168.45 35.95 168.45 35.95Q168.45 35.95 168.45 35.95Q168.45 35.95 168.45 35.95Q168.45 35.95 168.45 35.95Q168.45 35.95 168.45 35.95Q168.45 35.95 168.45 35.95ZM181.70 34.75Q181.70 33.60 181.70 32.15Q181.70 30.70 181.70 29.13Q181.70 27.55 181.70 26.07Q181.70 24.60 181.70 23.40Q181.70 22.20 181.70 21.50Q181.70 20.80 181.70 20.80Q181.70 20.80 181.70 20.80Q181.70 20.80 181.70 20.80Q181.70 20.80 181.70 20.80Q181.70 20.80 181.70 20.80Q181.70 20.80 182.69 20.80Q183.67 20.80 185.21 20.80Q186.75 20.80 188.50 20.80Q190.25 20.80 191.79 20.80Q193.32 20.80 194.31 20.80Q195.30 20.80 195.30 20.80Q195.30 20.80 195.30 20.80Q195.30 20.80 195.30 20.80Q195.30 20.80 195.30 20.80Q195.30 20.80 195.30 20.80Q195.30 20.80 195.30 20.80Q195.30 21.27 195.30 21.79Q195.30 22.30 195.30 22.80Q195.17 22.80 194.47 22.80Q193.77 22.80 192.76 22.80Q191.75 22.80 190.71 22.80Q189.67 22.80 188.86 22.80Q188.05 22.80 187.75 22.80Q187.75 22.80 187.75 22.80Q187.75 22.80 187.75 22.80Q187.75 22.80 187.75 22.80Q187.75 22.80 187.75 22.80Q187.67 22.80 187.25 23.17Q186.82 23.55 186.22 24.13Q185.63 24.70 185.05 25.29Q184.47 25.88 184.09 26.30Q183.70 26.72 183.70 26.80L183.70 34.75L181.70 34.75M181.70 27.15L183.70 27.15Q183.70 28.52 183.70 29.35Q183.70 30.17 183.70 30.94Q183.70 31.70 183.70 32.90Q183.70 32.90 183.70 32.90Q183.70 32.90 183.70 32.90Q183.70 32.90 183.70 32.90Q183.70 32.90 183.70 32.90Q183.70 34.15 183.70 34.80Q183.70 35.45 183.70 35.89Q183.70 36.33 183.70 36.91Q183.70 37.50 183.70 38.65L181.70 38.65L181.70 27.15M181.70 31.05L183.70 31.05L183.70 39Q183.70 39.08 184.09 39.50Q184.47 39.92 185.05 40.51Q185.63 41.10 186.22 41.67Q186.82 42.25 187.25 42.63Q187.67 43 187.75 43Q187.75 43 187.75 43Q187.75 43 187.75 43Q187.75 43 187.75 43Q187.75 43 187.75 43Q188.05 43 188.86 43Q189.67 43 190.71 43Q191.75 43 192.76 43Q193.77 43 194.47 43Q195.17 43 195.30 43Q195.30 43.48 195.30 43.99Q195.30 44.50 195.30 45Q195.30 45 195.30 45Q195.30 45 195.30 45Q195.30 45 195.30 45Q195.30 45 195.30 45Q195.30 45 195.30 45Q195.30 45 194.31 45Q193.32 45 191.79 45Q190.25 45 188.50 45Q186.75 45 185.21 45Q183.67 45 182.69 45Q181.70 45 181.70 45Q181.70 45 181.70 45Q181.70 45 181.70 45Q181.70 45 181.70 45Q181.70 45 181.70 45Q181.70 45 181.70 44.30Q181.70 43.60 181.70 42.40Q181.70 41.20 181.70 39.73Q181.70 38.25 181.70 36.69Q181.70 35.13 181.70 33.65Q181.70 32.17 181.70 31.05M208.30 34.75L206.30 34.75L206.30 26.80Q206.30 26.72 205.91 26.30Q205.52 25.88 204.95 25.29Q204.38 24.70 203.77 24.13Q203.17 23.55 202.75 23.17Q202.32 22.80 202.25 22.80Q202.25 22.80 202.25 22.80Q202.25 22.80 202.25 22.80Q202.25 22.80 202.25 22.80Q202.25 22.80 202.25 22.80Q201.95 22.80 201.14 22.80Q200.32 22.80 199.29 22.80Q198.25 22.80 197.24 22.80Q196.22 22.80 195.52 22.80Q194.82 22.80 194.70 22.80Q194.70 22.30 194.70 21.79Q194.70 21.27 194.70 20.80Q194.70 20.80 194.70 20.80Q194.70 20.80 194.70 20.80Q194.70 20.80 194.70 20.80Q194.70 20.80 194.70 20.80Q194.70 20.80 194.70 20.80Q194.70 20.80 195.69 20.80Q196.67 20.80 198.21 20.80Q199.75 20.80 201.50 20.80Q203.25 20.80 204.79 20.80Q206.32 20.80 207.31 20.80Q208.30 20.80 208.30 20.80Q208.30 20.80 208.30 20.80Q208.30 20.80 208.30 20.80Q208.30 20.80 208.30 20.80Q208.30 20.80 208.30 20.80Q208.30 20.80 208.30 21.50Q208.30 22.20 208.30 23.40Q208.30 24.60 208.30 26.07Q208.30 27.55 208.30 29.13Q208.30 30.70 208.30 32.15Q208.30 33.60 208.30 34.75M208.30 32.55Q208.30 32.55 208.30 33.45Q208.30 34.35 208.30 35.76Q208.30 37.17 208.30 38.77Q208.30 40.38 208.30 41.79Q208.30 43.20 208.30 44.10Q208.30 45 208.30 45Q208.30 45 208.30 45Q208.30 45 208.30 45Q208.30 45 208.30 45Q208.30 45 208.30 45Q208.30 45 207.31 45Q206.32 45 204.79 45Q203.25 45 201.50 45Q199.75 45 198.21 45Q196.67 45 195.69 45Q194.70 45 194.70 45Q194.70 45 194.70 45Q194.70 45 194.70 45Q194.70 45 194.70 45Q194.70 45 194.70 45Q194.70 45 194.70 45Q194.70 44.50 194.70 43.99Q194.70 43.48 194.70 43Q194.70 43 195.88 43Q197.05 43 198.77 43Q200.50 43 202.22 43Q203.95 43 205.13 43Q206.30 43 206.30 43Q206.30 43 206.30 43Q206.30 43 206.30 43Q206.30 43 206.30 43Q206.30 43 206.30 43Q206.30 43 206.30 43Q206.30 43 206.30 43Q206.30 43 206.30 43Q206.30 43 206.30 43Q206.30 43 206.30 43Q206.30 43 206.30 43Q206.30 43 206.30 43Q206.30 43 206.30 41.95Q206.30 40.90 206.30 39.34Q206.30 37.77 206.30 36.21Q206.30 34.65 206.30 33.60Q206.30 32.55 206.30 32.55L208.30 32.55M198.20 28.95Q198.20 28.95 198.20 28.95Q198.20 28.95 198.20 28.95Q198.20 28.95 198.20 28.95Q198.20 28.95 198.20 28.95Q198.20 28.95 198.20 28.95Q198.20 28.95 198.20 28.95Q198.20 28.95 198.20 28.95Q198.35 28.95 198.38 28.97Q198.40 29 198.40 29.15Q198.40 29.42 198.40 29.69Q198.40 29.95 198.40 30.21Q198.40 30.48 198.40 30.75Q198.40 30.90 198.38 30.92Q198.35 30.95 198.20 30.95Q198.20 30.95 198.20 30.95Q198.20 30.95 198.20 30.95Q198.20 30.95 198.20 30.95Q198.20 30.95 198.20 30.95Q198.20 30.95 198.20 30.95Q198.20 30.95 198.20 30.95Q198.20 30.95 198.20 30.95Q198.20 30.95 197.26 30.95Q196.32 30.95 195.10 30.95Q193.88 30.95 192.94 30.95Q192 30.95 192 30.95Q192 30.95 192 30.95Q192 30.95 192 30.95Q191.85 30.95 191.82 30.92Q191.80 30.90 191.80 30.75Q191.80 30.48 191.80 30.21Q191.80 29.95 191.80 29.69Q191.80 29.42 191.80 29.15Q191.80 29 191.82 28.97Q191.85 28.95 192 28.95Q192 28.95 192 28.95Q192 28.95 192 28.95Q192 28.95 192.94 28.95Q193.88 28.95 195.10 28.95Q196.32 28.95 197.26 28.95Q198.20 28.95 198.20 28.95M207.25 36.85L206.30 36.85Q206.30 36.85 206.30 36.67Q206.30 36.50 206.30 36.33Q206.30 36.15 206.30 36.15Q206.30 36.15 205.29 36.30Q204.27 36.45 202.79 36.66Q201.30 36.88 199.81 37.09Q198.32 37.30 197.31 37.45Q196.30 37.60 196.30 37.60Q196.30 37.60 196.29 37.50Q196.27 37.40 196.24 37.19Q196.20 36.98 196.15 36.65Q196.10 36.33 196.06 36.10Q196.02 35.88 196.01 35.76Q196 35.65 196 35.65Q196 35.65 197.04 35.50Q198.07 35.35 199.61 35.13Q201.15 34.90 202.69 34.67Q204.22 34.45 205.26 34.30Q206.30 34.15 206.30 34.15Q206.30 34.15 206.30 33.91Q206.30 33.67 206.30 33.44Q206.30 33.20 206.30 33.20L207.25 33.20L207.25 36.85Z"/></g></g></svg>